<?xml version="1.0" standalone="no"?>
<!DOCTYPE svg PUBLIC "-//W3C//DTD SVG 1.1//EN" "http://www.w3.org/Graphics/SVG/1.1/DTD/svg11.dtd" >
<svg>
<metadata>
Created by FontForge 20090914 at Sun Jan  8 15:40:48 2017
 By www-data
</metadata>
<defs>
<font id="HiraKakuProN-W3-AlphaNum" horiz-adv-x="1000" vert-adv-y="1000" >
  <font-face 
    font-family="HiraKakuProN-W3-AlphaNum"
    font-weight="200"
    font-stretch="normal"
    units-per-em="1000"
    panose-1="2 0 3 3 0 0 0 0 0 0"
    ascent="800"
    descent="-200"
    bbox="14.999 -102.005 985 863.003"
    underline-thickness="50"
    underline-position="-100"
    unicode-range="U+2155-U+32BF"
  />
<missing-glyph horiz-adv-x="364" 
d="M33 0v666h265v-666h-265zM66 33h199v600h-199v-600z" />
    <glyph glyph-name=".notdef" horiz-adv-x="364" 
d="M33 0v666h265v-666h-265zM66 33h199v600h-199v-600z" />
    <glyph glyph-name="Japan1.15727" unicode="&#x2155;" horiz-adv-x="884" 
d="M81 20l605 766l40 -31l-606 -767zM77 705l-0.000976562 64c9.33301 -2 25 -3 47 -3h57c15.333 0 31 1 47 3c-3.33301 -38.667 -5 -69.667 -5 -93v-272c0 -22.667 1.66699 -43.667 5 -63h-76c3.33301 16.667 5 37.667 5 63v304h-31c-17.333 0 -33.666 -1 -48.999 -3z
M587.999 180l-58.001 4.99902c0.666992 3.33301 1.66699 7 3 11c3.33301 15.333 6 33.666 8 54.999l10 122c1.33301 16 2 26.333 2 31c0 8 -1 19.333 -3 34l7 -1c4 -0.666992 8.66699 -1.66699 14 -3c8 -1.33301 24.333 -2 49 -2h111c22 0 46.667 2 74 6v-66
c-21.333 3.33301 -46 5 -74 5h-120l-7 -89c0 -4.66699 -0.333008 -9 -1 -13c0 -0.666992 -0.166992 -1.5 -0.5 -2.5s-0.5 -2 -0.5 -3s-0.166992 -2.33301 -0.5 -4s-0.5 -3.16699 -0.5 -4.5c24 22 52.667 33 86 33c40.667 0 75 -13.333 103 -40c26 -26 39 -61 39 -105
c0 -47.333 -14.167 -85.166 -42.5 -113.499s-66.166 -42.5 -113.499 -42.5c-29.333 0 -56.166 6.33301 -80.499 19s-43.166 30 -56.499 52c-0.666992 2 -3.16699 7.33301 -7.5 16s-7.5 15.334 -9.5 20.001l66 20c3.33301 -11.333 6.33301 -20 9 -26
c16 -29.333 42.667 -44 80 -44c27.333 0 49.166 8.83301 65.499 26.5s24.5 40.834 24.5 69.501s-7.83301 51.334 -23.5 68.001s-36.834 25 -63.501 25c-18 0 -34.667 -3.83301 -50 -11.5s-26.333 -17.834 -33 -30.501c0 -0.666992 -2 -6.33398 -6 -17.001z" />
    <glyph glyph-name="Japan1.7575" unicode="&#x2160;" 
d="M453 760l95 -0.000976562c-6 -33.333 -9 -70.666 -9 -111.999v-536c0 -40.667 3 -78 9 -112h-95c5.33301 32.667 8 70 8 112v536c0 42.667 -2.66699 80 -8 112z" />
    <glyph glyph-name="Japan1.7576" unicode="&#x2161;" 
d="M329 760l93 -0.000976562c-5.33301 -31.333 -8 -68.666 -8 -111.999v-536c0 -43.333 2.66699 -80.666 8 -111.999h-93c5.33301 31.333 8 68.666 8 111.999v536c0 42 -2.66699 79.333 -8 112zM578 759.999l93 -0.000976562c-5.33301 -30 -8 -67.333 -8 -112v-536
c0 -43.333 2.66699 -80.666 8 -111.999h-93c5.33301 30 8 67.333 8 112v536c0 42.667 -2.66699 80 -8 112z" />
    <glyph glyph-name="Japan1.7577" unicode="&#x2162;" 
d="M214 760h91c-5.33301 -30 -8 -67.667 -8 -113v-534c0 -45.333 2.66699 -83 8 -113h-91c5.33301 31.333 8 69 8 113v534c0 44 -2.66699 81.667 -8 113zM453 760h91c-5.33301 -30 -8 -67.667 -8 -113v-534c0 -43.333 2.66699 -81 8 -113h-91c5.33301 32 8 69.667 8 113v534
c0 44 -2.66699 81.667 -8 113zM694 760l91 -0.000976562c-5.33301 -30 -8 -67.667 -8 -113v-534c0 -43.333 2.66699 -81 8 -113h-91c5.33301 32.667 8 70.334 8 113.001v534c0 44 -2.66699 81.667 -8 113z" />
    <glyph glyph-name="Japan1.7578" unicode="&#x2163;" 
d="M417 656l179 -504.004c0 -1.33301 1 -4.66602 3 -9.99902l8 -24c1.33301 -5.33301 5.33301 -17.666 12 -36.999c6.66699 26.667 13.667 50.334 21 71.001l178 504c14.667 42.667 24 77.334 28 104.001h100c-14.667 -25.333 -31 -64 -49 -116l-203 -550
c-14 -38 -24 -69.333 -30 -94h-92c-3.33301 14.667 -5.66602 23.667 -6.99902 27c-10 26.667 -18 49 -24 67l-203 550c-20.667 55.333 -37 94 -49 116h100c5.33301 -31.333 14.666 -66 27.999 -104zM117 759.996h91c-5.33301 -30 -8 -67.667 -8 -113v-534
c0 -45.333 2.66699 -83 8 -113h-91c5.33301 31.333 8 69 8 113v534c0 44 -2.66699 81.667 -8 113z" />
    <glyph glyph-name="Japan1.7579" unicode="&#x2164;" 
d="M287 658l189.998 -511.999c5.33301 -14.667 13.333 -38 24 -70l23 70l188 512c16.667 42.667 26.334 76.667 29.001 102h104c-12 -20.667 -29 -59.334 -51 -116.001l-214 -551c-15.333 -40 -25.666 -71 -30.999 -93h-97c-3.33301 17.333 -14 48.333 -32 93l-214 551
c-20 53.333 -37 92 -51 116h103c5.33301 -28 15 -62 29 -102z" />
    <glyph glyph-name="Japan1.7580" unicode="&#x2165;" 
d="M182 656l179 -503.999l11 -32c0.666992 -1.33301 4.66699 -14.333 12 -39c8 29.333 15.333 53 22 71l177 504c15.333 45.333 24.666 80 27.999 104h100c-14 -25.333 -30.333 -64 -49 -116l-203 -550c-16 -44.667 -25.667 -76 -29 -94h-93
c-3.33301 13.333 -5.66602 22.333 -6.99902 27l-23 67l-204 550c-18 51.333 -34.333 90 -49 116h100c6 -32.667 15.333 -67.334 28 -104.001zM791 760.001h91c-5.33301 -30 -8 -67.667 -8 -113v-534c0 -45.333 2.66699 -83 8 -113h-91c5.33301 31.333 8 69 8 113v534
c0 44 -2.66699 81.667 -8 113z" />
    <glyph glyph-name="Japan1.7581" unicode="&#x2166;" 
d="M513 760l93 0.000976562c-12.667 -25.333 -27.667 -64 -45 -116l-181 -550c-10 -30.667 -18.667 -62 -26 -94h-79c-4 19.333 -13 50.666 -27 93.999l-182 550c-18.667 54 -33.667 92.667 -45 116h90c4 -26.667 13 -61 27 -103l159 -497c2 -6 7.66699 -27.667 17 -65
c6.66699 30 12 50.667 16 62l159 500c12 38.667 20 73 24 103zM645 760.001h87c-5.33301 -31.333 -8 -69 -8 -113v-534c0 -45.333 2.66699 -83 8 -113h-87c5.33301 32 8 69.667 8 113v534c0 45.333 -2.66699 83 -8 113zM843 760.001l87 -0.000976562
c-5.33301 -29.333 -8 -67 -8 -113v-534c0 -44 2.66699 -81.667 8 -113h-87c5.33301 32.667 8 70.334 8 113.001v534c0 43.333 -2.66699 81 -8 113z" />
    <glyph glyph-name="Japan1.7582" unicode="&#x2167;" 
d="M427 760l84 -0.000976562c-11.333 -28 -23 -66.667 -35 -116l-148 -550c-12 -45.333 -19.333 -76.666 -22 -93.999h-73c-2 15.333 -9.33301 46.666 -22 93.999l-148 550c-12 45.333 -24.333 84 -37 116h85c2 -23.333 8.66699 -58 20 -104l128 -497
c1.33301 -4.66699 3 -12 5 -22c1.33301 -8 3.33301 -17.667 6 -29l6 30c2.66699 13.333 4 20.333 4 21l128 497c10 38.667 16.333 73.334 19 104.001zM538 759.999h82c-5.33301 -31.333 -8 -69 -8 -113v-534c0 -44 2.66699 -81.667 8 -113h-82c5.33301 31.333 8 69 8 113
v534c0 43.333 -2.66699 81 -8 113zM703 759.999h82c-5.33301 -31.333 -8 -69 -8 -113v-534c0 -46 2.66699 -83.667 8 -113h-82c5.33301 30 8 67.667 8 113v534c0 44 -2.66699 81.667 -8 113zM867 759.999l82 -0.000976562c-5.33301 -30 -8 -67.667 -8 -113v-534
c0 -45.333 2.66699 -83 8 -113h-82c5.33301 32.667 8 70.334 8 113.001v534c0 43.333 -2.66699 81 -8 113z" />
    <glyph glyph-name="Japan1.7583" unicode="&#x2168;" 
d="M615 345l-154 -242.998c-19.333 -30 -37.333 -64 -54 -102h-111c32.667 42.667 60.667 81.667 84 117l186 284l-164 249c-18 27.333 -43.667 64 -77 110h108c12 -30 28 -61 48 -93l136 -210l132 210c22 34.667 37.667 65.667 47 93h109
c-24.667 -32.667 -50.334 -69.334 -77.001 -110.001l-164 -249l186 -282c24 -36.667 53 -76.334 87 -119.001h-112c-23.333 46 -41.666 79.333 -54.999 100zM118 760.002h91c-5.33301 -30 -8 -67.667 -8 -113v-534c0 -45.333 2.66699 -83 8 -113h-91
c5.33301 31.333 8 69 8 113v534c0 44 -2.66699 81.667 -8 113z" />
    <glyph glyph-name="Japan1.7584" unicode="&#x2169;" 
d="M498 348l-164.999 -246.002c-24 -37.333 -44 -71.333 -60 -102h-114l89 119l201 283l-177 250l-82 108h112c12 -26 30.667 -57.667 56 -95l143 -211l138 211c28.667 42.667 47 74.334 55 95.001h113c-26 -31.333 -53.667 -67.666 -83 -108.999l-176 -249l200 -281
c19.333 -28 50 -68.333 92 -121h-115c-26.667 46 -47.334 79.667 -62.001 101z" />
    <glyph glyph-name="Japan1.8225" unicode="&#x216a;" 
d="M381 345l-153.999 -242.998c-22 -35.333 -40 -69.333 -54 -102h-111c33.333 43.333 61.333 82.333 84 117l187 284l-165 249l-77 110h108c13.333 -32.667 29.666 -63.667 48.999 -93l136 -210l132 210c22.667 38 38.334 69 47.001 93h108
c-24.667 -32.667 -50.334 -69.334 -77.001 -110.001l-163 -249l185 -282c22 -32.667 51 -72.334 87 -119.001h-111c-22.667 44.667 -41 78 -55 100zM790.001 760.002h91c-5.33301 -30 -8 -67.667 -8 -113v-534c0 -45.333 2.66699 -83 8 -113h-91c5.33301 31.333 8 69 8 113
v534c0 44 -2.66699 81.667 -8 113z" />
    <glyph glyph-name="Japan1.8226" unicode="&#x216b;" 
d="M126 0l-100.997 0.000976562c30.667 44.667 55.667 84 75 118l168 283l-149 249c-21.333 36 -44.333 72.667 -69 110h101c9.33301 -28 24.666 -60.333 45.999 -97l119 -206l116 206c19.333 35.333 33.666 67.666 42.999 96.999h103c-20 -28 -43.333 -65 -70 -111
l-147 -249l165 -280c19.333 -33.333 45.666 -73.333 78.999 -120h-105c-10 22 -16.333 35.667 -19 41c-6.66699 11.333 -11.667 21 -15 29c-6.66699 14.667 -11.667 24.667 -15 30l-137 242l-139 -241c-20.667 -35.333 -37 -69 -49 -101zM645.003 760.001l87 -0.000976562
c-5.33301 -31.333 -8 -69 -8 -113v-534c0 -45.333 2.66699 -83 8 -113h-87c5.33301 32.667 8 70.334 8 113.001v534c0 45.333 -2.66699 83 -8 113zM843.003 760l87 -0.000976562c-5.33301 -29.333 -8 -67 -8 -113v-534c0 -44 2.66699 -81.667 8 -113h-87
c5.33301 32.667 8 70.334 8 113.001v534c0 43.333 -2.66699 81 -8 113z" />
    <glyph glyph-name="Japan1.8092" unicode="&#x2170;" 
d="M452 760h97v-89h-97v89zM455 539l90 0.000976562c-4.66699 -32.667 -7 -70.334 -7 -113.001v-313c0 -38.667 2.33301 -76.334 7 -113.001h-90c4.66699 40 7 77.667 7 113v313c0 42.667 -2.33301 80.334 -7 113.001z" />
    <glyph glyph-name="Japan1.8093" unicode="&#x2171;" 
d="M332 760h97v-89h-97v89zM335 539h90c-4.66699 -32.667 -7 -70.334 -7 -113.001v-313c0 -40 2.33301 -77.667 7 -113h-90c4.66699 38 7 75.333 7 112v314c0 40.667 -2.33301 78.334 -7 113.001zM570 760h97v-89h-97v89zM573 539h90
c-4.66699 -32.667 -7 -70.334 -7 -113.001v-313c0 -40 2.33301 -77.667 7 -113h-90c4.66699 38 7 75.333 7 112v314c0 40.667 -2.33301 78.334 -7 113.001z" />
    <glyph glyph-name="Japan1.8094" unicode="&#x2172;" 
d="M223 760h94v-89h-94v89zM226 539l88 -0.000976562c-4.66699 -32.667 -7 -70.667 -7 -114v-312c0 -38 2.33301 -75.667 7 -113h-88c4.66699 42 7 79.667 7 113v313c0 40.667 -2.33301 78.334 -7 113.001zM453 759.999h94v-89h-94v89zM456 538.999l88 -0.000976562
c-4.66699 -32.667 -7 -70.667 -7 -114v-312c0 -38 2.33301 -75.667 7 -113h-88c4.66699 42 7 79.667 7 113v313c0 40.667 -2.33301 78.334 -7 113.001zM684 759.998h94v-89h-94v89zM686 538.998l88 -0.000976562c-4.66699 -32.667 -7 -70.667 -7 -114v-312
c0 -38 2.33301 -75.667 7 -113h-88c4.66699 42 7 79.667 7 113v313c0 42.667 -2.33301 80.334 -7 113.001z" />
    <glyph glyph-name="Japan1.8095" unicode="&#x2173;" 
d="M360 539l93 -0.000976562c6 -30 16 -63 30 -99l110 -290c7.33301 -18 15.333 -40.667 24 -68c6 20.667 13.667 43.334 23 68.001l110 290c16 39.333 26 72.333 30 99h92c-9.33301 -17.333 -25.333 -54 -48 -110l-135 -337c-14 -34 -24.333 -64.667 -31 -92h-83
c-6 25.333 -16.333 56 -31 92l-135 337c-14 35.333 -30.333 72 -49 110zM194 759.999h94v-89h-94v89zM197 538.999l88 -0.000976562c-4.66699 -32.667 -7 -70.667 -7 -114v-312c0 -38 2.33301 -75.667 7 -113h-88c4.66699 42 7 79.667 7 113v313
c0 40.667 -2.33301 78.334 -7 113.001z" />
    <glyph glyph-name="Japan1.8096" unicode="&#x2174;" 
d="M239 539l94.001 0.000976562c5.33301 -28 15.666 -60.667 30.999 -98l114 -294c7.33301 -20 14.666 -41.667 21.999 -65c7.33301 24 15 45.333 23 64l114 295c15.333 37.333 25.333 70 30 98h94c-7.33301 -14 -23.666 -50.667 -48.999 -110l-140 -337
c-17.333 -42.667 -28 -73.334 -32 -92.001h-79c-4 18 -15 48.667 -33 92l-139 337z" />
    <glyph glyph-name="Japan1.8097" unicode="&#x2175;" 
d="M127 539l92.998 -0.000976562c4.66699 -26.667 14.667 -59.667 30 -99l110 -290c7.33301 -18.667 15.333 -41.334 24 -68.001c6 20.667 13.667 43.334 23 68.001l110 290c16 40 26 73 30 99h92c-12.667 -24 -28.667 -60.667 -48 -110l-135 -337
c-15.333 -39.333 -25.666 -70 -30.999 -92h-83c-5.33301 22.667 -15.666 53.334 -30.999 92.001l-135 337c-18 43.333 -34.333 80 -49 110zM710.998 759.999h94v-89h-94v89zM712.998 538.999l88 -0.000976562c-4.66699 -32.667 -7 -70.667 -7 -114v-312
c0 -38 2.33301 -75.667 7 -113h-88c4.66699 42 7 79.667 7 113v313c0 40.667 -2.33301 78.334 -7 113.001z" />
    <glyph glyph-name="Japan1.8098" unicode="&#x2176;" 
d="M92 539h87c4 -24 13 -57 27 -99l96 -287l10 -32c3.33301 -10.667 5.66602 -18.667 6.99902 -24s2.33301 -8.66602 3 -9.99902l20 66l98 287c13.333 40.667 22 73.667 26 99h87c-18 -44 -32.333 -80.667 -43 -110l-121 -337
c-15.333 -42.667 -25.666 -73.334 -30.999 -92.001h-72c-6 23.333 -16 54 -30 92l-121 337c-12 33.333 -26.333 70 -43 110zM587 760h91v-89h-91v89zM590 539h84c-4.66699 -33.333 -7 -71.333 -7 -114v-312c0 -38.667 2.33301 -76.334 7 -113.001h-84
c4.66699 41.333 7 79 7 113v313c0 40.667 -2.33301 78.334 -7 113.001zM779 760h91v-89h-91v89zM783 539l84 0.000976562c-4.66699 -33.333 -7 -71.333 -7 -114v-312c0 -38.667 2.33301 -76.334 7 -113.001h-84c4.66699 41.333 7 79 7 113v313c0 42 -2.33301 79.667 -7 113z
" />
    <glyph glyph-name="Japan1.8099" unicode="&#x2177;" 
d="M363 539l79 -0.00195312c-9.33301 -25.333 -20.666 -62 -33.999 -110l-94 -337c-11.333 -38 -18.333 -68.667 -21 -92h-67c-2.66699 14.667 -10.334 45.334 -23.001 92.001l-92 337c-12 42.667 -23.667 79.334 -35 110.001h79
c5.33301 -31.333 12.666 -64.666 21.999 -99.999l72 -286c4 -20.667 7.33301 -39.334 10 -56.001c4 28 7 46.333 9 55l75 287c8.66699 34 15.334 67.333 20.001 100zM473 759.998h87v-89h-87v89zM476 538.998l80 -0.000976562c-4.66699 -28 -7 -66 -7 -114v-312
c0 -46 2.33301 -83.667 7 -113h-80c4.66699 32.667 7 70.334 7 113.001v313c0 47.333 -2.33301 85 -7 113zM635 759.997h87v-89h-87v89zM638 538.997h80c-4.66699 -27.333 -7 -65.333 -7 -114v-312c0 -40.667 2.33301 -78.334 7 -113.001h-80
c4.66699 32.667 7 70.334 7 113.001v313c0 47.333 -2.33301 85 -7 113zM797 759.997h87v-89h-87v89zM800 538.997l80 -0.000976562c-4.66699 -30.667 -7 -68.667 -7 -114v-312c0 -46 2.33301 -83.667 7 -113h-80c4.66699 34 7 71.667 7 113v313
c0 44.667 -2.33301 82.334 -7 113.001z" />
    <glyph glyph-name="Japan1.8100" unicode="&#x2178;" 
d="M563 279l-122.999 180l-59 80h95c9.33301 -20 22 -42.667 38 -68l95 -141l95 141c16.667 25.333 29 48 37 68h94c-26 -35.333 -45.667 -63 -59 -83l-122 -177l128 -183c18.667 -27.333 41.667 -59.333 69 -96h-96c-13.333 25.333 -28 50.333 -44 75l-103 153l-107 -162
c-14.667 -22 -27.334 -44 -38.001 -66h-97l64 87zM201.001 760h94v-89h-94v89zM204.001 539l88 -0.000976562c-4.66699 -32.667 -7 -70.667 -7 -114v-312c0 -38 2.33301 -75.667 7 -113h-88c4.66699 42 7 79.667 7 113v313c0 40.667 -2.33301 78.334 -7 113.001z" />
    <glyph glyph-name="Japan1.8101" unicode="&#x2179;" 
d="M750 0l-99.001 0.000976562c-10.667 20 -25.667 44.667 -45 74l-106 153l-111 -162c-10.667 -14.667 -23.667 -36.334 -39 -65.001h-99c24.667 30.667 46.334 59.667 65.001 87l139 192l-129 180c-1.33301 2.66699 -21.333 29.334 -60 80.001h98
c8.66699 -20 21.667 -42.333 39 -67l98 -141l97 141c17.333 25.333 30.333 47.666 39 66.999h96c-7.33301 -10.667 -17.833 -25.167 -31.5 -43.5l-29.5 -39.5l-126 -177l132 -184z" />
    <glyph glyph-name="Japan1.8298" unicode="&#x217a;" 
d="M341 279l-123.999 180l-58 80h95c9.33301 -21.333 22 -44 38 -68l95 -142l94 142c14 20 26.333 42.667 37 68h94c-1.33301 -2 -4.66602 -6.66699 -9.99902 -14l-17 -24c-2.66699 -3.33301 -13.334 -18.333 -32.001 -45l-121 -177l127 -183
c23.333 -34 46.666 -66 69.999 -96h-97c-12 24 -26.333 49 -43 75l-103 154l-108 -163c-12.667 -20 -25 -42 -37 -66h-97c30.667 41.333 51.667 70.333 63 87zM702.001 760h94v-89h-94v89zM704.001 539h88c-4.66699 -32.667 -7 -70.667 -7 -114v-312
c0 -38 2.33301 -75.667 7 -113h-88c4.66699 42 7 79.667 7 113v313c0 40 -2.33301 77.667 -7 113z" />
    <glyph glyph-name="Japan1.8299" unicode="&#x217b;" 
d="M587 760h91v-89h-91v89zM590 539h84c-4.66699 -33.333 -7 -71.333 -7 -114v-312c0 -38.667 2.33301 -76.334 7 -113.001h-84c4.66699 41.333 7 79 7 113v313c0 40.667 -2.33301 78.334 -7 113.001zM779 760h91v-89h-91v89zM782 539l84 0.000976562
c-4.66699 -33.333 -7 -71.333 -7 -114v-312c0 -38.667 2.33301 -76.334 7 -113.001h-84c4.66699 41.333 7 79 7 113v313c0 42 -2.33301 79.667 -7 113zM323 228.001l-102.999 -163c-9.33301 -14 -21 -35.667 -35 -65h-88l59 87l124 192l-115 180l-26 38l-28 42h85
c13.333 -28 25.333 -50.333 36 -67l91 -142l91 142c14 20.667 26 43 36 67h85c-4.66699 -6 -13.334 -18.333 -26.001 -37c-2 -3.33301 -11.667 -18.333 -29 -45l-114 -178l119 -185l64 -94h-88c-10.667 22.667 -23.667 46.667 -39 72z" />
    <glyph glyph-name="Japan1.7555" unicode="&#x2460;" 
d="M357 628l0.000976562 70c13.333 -2 37 -3.33301 71 -4h55c21.333 0 45 1.33301 71 4c-5.33301 -45.333 -8 -92.333 -8 -141v-415c0 -34 2.33301 -66 7 -96h-85c4.66699 32 7 64 7 96v491h-44c-24.667 0 -49.334 -1.66699 -74.001 -5zM500.001 860
c86.667 0 166.834 -21.3301 240.501 -63.9971s131.834 -100.834 174.501 -174.501s64 -153.834 64 -240.501s-21.333 -166.834 -64 -240.501s-100.834 -132 -174.501 -175s-153.834 -64.5 -240.501 -64.5c-64.667 0 -126.667 12.667 -186 38s-110.333 59.5 -153 102.5
s-76.667 94 -102 153s-38 121.167 -38 186.5c0 64.667 12.667 126.667 38 186s59.333 110.333 102 153s93.667 76.667 153 102s121.333 38 186 38zM500.001 827.003c-122.667 0 -227.667 -43.5 -315 -130.5s-131 -192.167 -131 -315.5s43.5 -228.666 130.5 -315.999
s192.167 -131 315.5 -131s228.5 43.667 315.5 131s130.5 192.666 130.5 315.999s-43.667 228.5 -131 315.5s-192.333 130.5 -315 130.5z" />
    <glyph glyph-name="Japan1.7556" unicode="&#x2461;" 
d="M625 60l-259.996 -0.00195312c-36 0 -67.667 -1.33301 -95 -4c7.33301 49.333 16 86 26 110c26.667 64 70.334 120 131.001 168c12 10.667 53.667 40.667 125 90c35.333 24 59.666 45.333 72.999 64s20 40.667 20 66c0 33.333 -12.333 59.333 -37 78s-58.667 28 -102 28
c-56.667 0 -97.334 -18.333 -122.001 -55c-14 -20 -23.667 -48.333 -29 -85l-75 12c12.667 55.333 31 96.333 55 123c38 44 95 66 171 66c65.333 0 117.166 -15.167 155.499 -45.5s57.5 -71.166 57.5 -122.499c0 -47.333 -18.667 -89.666 -56 -126.999
c-15.333 -15.333 -44 -37.333 -86 -66c-66.667 -44.667 -111.334 -77 -134.001 -97c-44.667 -40 -73.334 -86.667 -86.001 -140h269c40 0 74 1.66699 102 5v-73c-42 3.33301 -76.333 5 -103 5zM500.004 859.998c86.667 0 166.834 -21.3301 240.501 -63.9971
s131.834 -100.834 174.501 -174.501s64 -153.834 64 -240.501s-21.333 -166.834 -64 -240.501s-100.834 -132 -174.501 -175s-153.834 -64.5 -240.501 -64.5c-64.667 0 -126.667 12.667 -186 38s-110.333 59.5 -153 102.5s-76.667 94 -102 153s-38 121.167 -38 186.5
c0 64.667 12.667 126.667 38 186s59.333 110.333 102 153s93.667 76.667 153 102s121.333 38 186 38zM500.004 827.001c-122.667 0 -227.667 -43.5 -315 -130.5s-131 -192.167 -131 -315.5s43.5 -228.666 130.5 -315.999s192.167 -131 315.5 -131s228.5 43.667 315.5 131
s130.5 192.666 130.5 315.999s-43.667 228.5 -131 315.5s-192.333 130.5 -315 130.5z" />
    <glyph glyph-name="Japan1.7557" unicode="&#x2462;" 
d="M260 197l75 17.001c10 -34.667 26.333 -60.667 49 -78c28.667 -20.667 65.334 -31 110.001 -31c49.333 0 88.166 11.5 116.499 34.5s42.5 54.833 42.5 95.5c0 86 -56.667 129 -170 129c-22 0 -45.333 -1.33301 -70 -4v68c25.333 -2.66699 45.666 -4 60.999 -4
c30 0 59 4.66699 87 14c21.333 7.33301 38.333 21.166 51 41.499s19 43.833 19 70.5c0 33.333 -12 59.666 -36 78.999s-56.333 29 -97 29c-44 0 -77.333 -10.667 -100 -32c-16 -14 -28.333 -38 -37 -72l-76 17c12 35.333 25.667 62 41 80c38 44.667 96.667 67 176 67
c62.667 0 112.167 -14.833 148.5 -44.5s54.5 -70.167 54.5 -121.5c0 -56.667 -20 -99 -60 -127c-20 -14 -48 -23.667 -84 -29c47.333 -4.66699 83.333 -16.667 108 -36c38.667 -29.333 58 -73 58 -131c0 -57.333 -20.667 -102.666 -62 -135.999s-97.666 -50 -168.999 -50
c-85.333 0 -149.333 23.333 -192 70c-16 16.667 -30.667 44.667 -44 84zM500 860.001c86.667 0 166.834 -21.3301 240.501 -63.9971s131.834 -100.834 174.501 -174.501s64 -153.834 64 -240.501s-21.333 -166.834 -64 -240.501s-100.834 -132 -174.501 -175
s-153.834 -64.5 -240.501 -64.5c-64.667 0 -126.667 12.667 -186 38s-110.333 59.5 -153 102.5s-76.667 94 -102 153s-38 121.167 -38 186.5c0 64.667 12.667 126.667 38 186s59.333 110.333 102 153s93.667 76.667 153 102s121.333 38 186 38zM500 827.004
c-122.667 0 -227.667 -43.5 -315 -130.5s-131 -192.167 -131 -315.5s43.5 -228.666 130.5 -315.999s192.167 -131 315.5 -131s228.5 43.667 315.5 131s130.5 192.666 130.5 315.999s-43.667 228.5 -131 315.5s-192.333 130.5 -315 130.5z" />
    <glyph glyph-name="Japan1.7558" unicode="&#x2463;" 
d="M213 215l-0.000976562 68c20.667 22 39.334 43.667 56.001 65l215 269c24.667 31.333 45.667 60.333 63 87h70c-3.33301 -39.333 -5 -87.333 -5 -144v-279h31c38.667 0 68.667 2 90 6v-74c-32 4 -61.667 6 -89 6h-32v-73c0 -37.333 2 -68 6 -92h-80
c4.66699 30 7 60.667 7 92v73h-228c-45.333 0 -80 -1.33301 -104 -4zM544.999 280v214.999c0 40.667 1.33301 78.334 4 113.001c-16.667 -24.667 -36 -50.667 -58 -78l-198 -250h252zM499.999 859.999c86.667 0 166.834 -21.3301 240.501 -63.9971
s131.834 -100.834 174.501 -174.501s64 -153.834 64 -240.501s-21.333 -166.834 -64 -240.501s-100.834 -132 -174.501 -175s-153.834 -64.5 -240.501 -64.5c-64.667 0 -126.667 12.667 -186 38s-110.333 59.5 -153 102.5s-76.667 94 -102 153s-38 121.167 -38 186.5
c0 64.667 12.667 126.667 38 186s59.333 110.333 102 153s93.667 76.667 153 102s121.333 38 186 38zM499.999 827.002c-122.667 0 -227.667 -43.5 -315 -130.5s-131 -192.167 -131 -315.5s43.5 -228.666 130.5 -315.999s192.167 -131 315.5 -131s228.5 43.667 315.5 131
s130.5 192.666 130.5 315.999s-43.667 228.5 -131 315.5s-192.333 130.5 -315 130.5z" />
    <glyph glyph-name="Japan1.7559" unicode="&#x2464;" 
d="M362 325l-65.998 4.99902c5.33301 26 9.66602 55 12.999 87l18 199c2 20.667 3 39 3 55c0 6 -1 15.667 -3 29c20.667 -3.33301 51.667 -5 93 -5h174c41.333 0 75 2.33301 101 7v-74c-24 4 -57.333 6 -100 6h-198l-18 -176c-0.666992 -14 -3.33398 -30 -8.00098 -48
c38 40 87.667 60 149 60c62 0 113.333 -19.333 154 -58c38 -38 57 -88.667 57 -152c0 -68.667 -21 -123.5 -63 -164.5s-97.667 -61.5 -167 -61.5c-67.333 0 -122.333 19.667 -165 59c-18.667 17.333 -37 44.333 -55 81l72 21c7.33301 -19.333 16 -35.666 26 -48.999
c30 -33.333 71 -50 123 -50c47.333 0 85.333 14.667 114 44s43 68.333 43 117s-13.667 86.5 -41 113.5s-65.333 40.5 -114 40.5s-89 -17 -121 -51c-6 -7.33301 -13 -19 -21 -35zM500.002 859.999c86.667 0 166.834 -21.3301 240.501 -63.9971
s131.834 -100.834 174.501 -174.501s64 -153.834 64 -240.501s-21.333 -166.834 -64 -240.501s-100.834 -132 -174.501 -175s-153.834 -64.5 -240.501 -64.5c-64.667 0 -126.667 12.667 -186 38s-110.333 59.5 -153 102.5s-76.667 94 -102 153s-38 121.167 -38 186.5
c0 64.667 12.667 126.667 38 186s59.333 110.333 102 153s93.667 76.667 153 102s121.333 38 186 38zM500.002 827.002c-122.667 0 -227.667 -43.5 -315 -130.5s-131 -192.167 -131 -315.5s43.5 -228.666 130.5 -315.999s192.167 -131 315.5 -131s228.5 43.667 315.5 131
s130.5 192.666 130.5 315.999s-43.667 228.5 -131 315.5s-192.333 130.5 -315 130.5z" />
    <glyph glyph-name="Japan1.7560" unicode="&#x2465;" 
d="M713 584l-69.999 -22.002c-8.66699 22.667 -18.334 40.334 -29.001 53.001c-26 28 -60 42 -102 42c-56 0 -99.667 -26 -131 -78c-15.333 -25.333 -26.5 -53.333 -33.5 -84s-11.833 -72.667 -14.5 -126c12.667 22.667 26 40.667 40 54c40 36 89 54 147 54
c64.667 0 116.334 -19.5 155.001 -58.5s58 -91.167 58 -156.5c0 -66 -20.833 -119.333 -62.5 -160s-96.167 -61 -163.5 -61c-76.667 0 -136.667 27.667 -180 83c-42 54 -63 133.333 -63 238c0 73.333 11 140.333 33 201c11.333 30.667 28.333 58.334 51 83.001
s48 42.667 76 54c26.667 11.333 57.334 17 92.001 17c59.333 0 107.666 -18 144.999 -54c17.333 -16.667 34.666 -43 51.999 -79zM511.001 416.998c-47.333 0 -86.5 -14.665 -117.5 -43.998s-46.5 -66.333 -46.5 -111c0 -45.333 15.333 -83.333 46 -114s69 -46 115 -46
c28 0 54 6.16699 78 18.5s42.333 29.166 55 50.499c14.667 23.333 22 53.666 22 90.999c0 48 -13.5 85.833 -40.5 113.5s-64.167 41.5 -111.5 41.5zM500.001 860c86.667 0 166.834 -21.3301 240.501 -63.9971s131.834 -100.834 174.501 -174.501s64 -153.834 64 -240.501
s-21.333 -166.834 -64 -240.501s-100.834 -132 -174.501 -175s-153.834 -64.5 -240.501 -64.5c-64.667 0 -126.667 12.667 -186 38s-110.333 59.5 -153 102.5s-76.667 94 -102 153s-38 121.167 -38 186.5c0 64.667 12.667 126.667 38 186s59.333 110.333 102 153
s93.667 76.667 153 102s121.333 38 186 38zM500.001 827.003c-122.667 0 -227.667 -43.5 -315 -130.5s-131 -192.167 -131 -315.5s43.5 -228.666 130.5 -315.999s192.167 -131 315.5 -131s228.5 43.667 315.5 131s130.5 192.666 130.5 315.999s-43.667 228.5 -131 315.5
s-192.333 130.5 -315 130.5z" />
    <glyph glyph-name="Japan1.7561" unicode="&#x2466;" 
d="M729 681v-63.999c-14.667 -12 -42.667 -49.667 -84 -113c-42.667 -65.333 -79 -138.333 -109 -219c-28.667 -78 -48.667 -163.667 -60 -257h-85c17.333 117.333 48.666 224.666 93.999 321.999c41.333 87.333 95.333 175 162 263h-274c-41.333 0 -73.666 -2 -96.999 -6
v75c29.333 -4 62 -6 98 -6h256c42.667 0 75.667 1.66699 99 5zM500 860.001c86.667 0 166.834 -21.3301 240.501 -63.9971s131.834 -100.834 174.501 -174.501s64 -153.834 64 -240.501s-21.333 -166.834 -64 -240.501s-100.834 -132 -174.501 -175
s-153.834 -64.5 -240.501 -64.5c-64.667 0 -126.667 12.667 -186 38s-110.333 59.5 -153 102.5s-76.667 94 -102 153s-38 121.167 -38 186.5c0 64.667 12.667 126.667 38 186s59.333 110.333 102 153s93.667 76.667 153 102s121.333 38 186 38zM500 827.004
c-122.667 0 -227.667 -43.5 -315 -130.5s-131 -192.167 -131 -315.5s43.5 -228.666 130.5 -315.999s192.167 -131 315.5 -131s228.5 43.667 315.5 131s130.5 192.666 130.5 315.999s-43.667 228.5 -131 315.5s-192.333 130.5 -315 130.5z" />
    <glyph glyph-name="Japan1.7562" unicode="&#x2467;" 
d="M413 393c-38 6.66699 -68.167 23.999 -90.5 51.999s-33.5 62 -33.5 102c0 61.333 27 108 81 140c34.667 19.333 78.334 29 131.001 29c64.667 0 116.167 -15.167 154.5 -45.5s57.5 -71.166 57.5 -122.499c0 -40.667 -11.167 -74.834 -33.5 -102.501
s-52.5 -45.167 -90.5 -52.5c38 -6.66699 69.333 -20 94 -40c39.333 -33.333 59 -76.333 59 -129c0 -68.667 -27.333 -118.667 -82 -150c-39.333 -23.333 -92 -35 -158 -35c-72.667 0 -129.334 14 -170.001 42c-47.333 32.667 -71 80.334 -71 143.001
c0 56.667 22.667 102 68 136c23.333 16.667 51.333 27.667 84 33zM501 655.999c-40.667 0 -74 -9.66895 -100 -29.002c-28 -19.333 -42 -48 -42 -86c0 -37.333 12.667 -66.666 38 -87.999s60 -32 104 -32s78.667 10.833 104 32.5s38 51.167 38 88.5
c0 34.667 -13 62.334 -39 83.001s-60.333 31 -103 31zM503 359.997c-52.667 0 -93.999 -11.833 -123.999 -35.5s-45 -56.167 -45 -97.5c0 -40.667 14.5 -72 43.5 -94s70.167 -33 123.5 -33s94.666 11 123.999 33s44 53.333 44 94s-14.833 73 -44.5 97s-70.167 36 -121.5 36z
M500.001 859.997c86.667 0 166.834 -21.3301 240.501 -63.9971s131.834 -100.834 174.501 -174.501s64 -153.834 64 -240.501s-21.333 -166.834 -64 -240.501s-100.834 -132 -174.501 -175s-153.834 -64.5 -240.501 -64.5c-64.667 0 -126.667 12.667 -186 38
s-110.333 59.5 -153 102.5s-76.667 94 -102 153s-38 121.167 -38 186.5c0 64.667 12.667 126.667 38 186s59.333 110.333 102 153s93.667 76.667 153 102s121.333 38 186 38zM500.001 827c-122.667 0 -227.667 -43.5 -315 -130.5s-131 -192.167 -131 -315.5
s43.5 -228.666 130.5 -315.999s192.167 -131 315.5 -131s228.5 43.667 315.5 131s130.5 192.666 130.5 315.999s-43.667 228.5 -131 315.5s-192.333 130.5 -315 130.5z" />
    <glyph glyph-name="Japan1.7563" unicode="&#x2468;" 
d="M290 173l70.9951 21.998c10.667 -24 21.334 -42 32.001 -54c24.667 -26 59.334 -39 104.001 -39c59.333 0 104.333 25.333 135 76c16.667 26 29 62.333 37 109c2.66699 16.667 5 49.667 7 99c-14.667 -29.333 -38 -54.333 -70 -75
c-33.333 -21.333 -72.666 -32 -117.999 -32c-62.667 0 -113.5 19.333 -152.5 58s-58.5 89.334 -58.5 152.001c0 54 13 99.333 39 136c44 60 107.333 90 190 90c70.667 0 126.334 -23.333 167.001 -70c48 -54 72 -138.333 72 -253c0 -49.333 -5 -96.166 -15 -140.499
s-23.333 -79.5 -40 -105.5c-44.667 -70.667 -110 -106 -196 -106c-64 0 -114.667 18 -152 54c-17.333 16.667 -34.666 43 -51.999 79zM499.995 338.998c46.667 0 85.5 14.667 116.5 44s46.5 66.333 46.5 111c0 46 -15 84.167 -45 114.5s-68 45.5 -114 45.5
c-28 0 -54 -6.33301 -78 -19s-42.667 -30 -56 -52c-14.667 -23.333 -22 -52.333 -22 -87c0 -49.333 13.5 -87.833 40.5 -115.5s64.167 -41.5 111.5 -41.5zM499.995 859.998c86.667 0 166.834 -21.3301 240.501 -63.9971s131.834 -100.834 174.501 -174.501
s64 -153.834 64 -240.501s-21.333 -166.834 -64 -240.501s-100.834 -132 -174.501 -175s-153.834 -64.5 -240.501 -64.5c-64.667 0 -126.667 12.667 -186 38s-110.333 59.5 -153 102.5s-76.667 94 -102 153s-38 121.167 -38 186.5c0 64.667 12.667 126.667 38 186
s59.333 110.333 102 153s93.667 76.667 153 102s121.333 38 186 38zM499.995 827.001c-122.667 0 -227.667 -43.5 -315 -130.5s-131 -192.167 -131 -315.5s43.5 -228.666 130.5 -315.999s192.167 -131 315.5 -131s228.5 43.667 315.5 131s130.5 192.666 130.5 315.999
s-43.667 228.5 -131 315.5s-192.333 130.5 -315 130.5z" />
    <glyph glyph-name="Japan1.7564" unicode="&#x2469;" 
d="M196 629v68.999c16.667 -2.66699 37 -4 61 -4h27c29.333 0 52 1.33301 68 4c-4.66699 -44 -7 -94.333 -7 -151v-378c0 -39.333 2.33301 -74 7 -104h-81c4.66699 28.667 7 63.334 7 104.001v465h-22c-24 0 -44 -1.66699 -60 -5zM636 52.999
c-57.333 0 -100.833 27.5 -130.5 82.5s-44.5 136.167 -44.5 243.5c0 106 14.833 186.833 44.5 242.5s72.834 83.5 129.501 83.5c57.333 0 101.166 -27.667 131.499 -83s45.5 -136.333 45.5 -243c0 -106 -15 -186.833 -45 -242.5s-73.667 -83.5 -131 -83.5zM636 643.999
c-70.667 0 -106 -88 -106 -264c0 -176.667 34.333 -265 103 -265c73.333 0 110 88.667 110 266c0 175.333 -35.667 263 -107 263zM500 859.999c86.667 0 166.834 -21.3301 240.501 -63.9971s131.834 -100.834 174.501 -174.501s64 -153.834 64 -240.501
s-21.333 -166.834 -64 -240.501s-100.834 -132 -174.501 -175s-153.834 -64.5 -240.501 -64.5c-64.667 0 -126.667 12.667 -186 38s-110.333 59.5 -153 102.5s-76.667 94 -102 153s-38 121.167 -38 186.5c0 64.667 12.667 126.667 38 186s59.333 110.333 102 153
s93.667 76.667 153 102s121.333 38 186 38zM500 827.002c-122.667 0 -227.667 -43.5 -315 -130.5s-131 -192.167 -131 -315.5s43.5 -228.666 130.5 -315.999s192.167 -131 315.5 -131s228.5 43.667 315.5 131s130.5 192.666 130.5 315.999s-43.667 228.5 -131 315.5
s-192.333 130.5 -315 130.5z" />
    <glyph glyph-name="Japan1.7565" unicode="&#x246a;" 
d="M217 629l-0.000976562 68.999c18 -2.66699 38.333 -4 61 -4h43c28.667 0 51.334 1.33301 68.001 4c-4.66699 -42 -7 -92.333 -7 -151v-378c0 -41.333 2.33301 -76 7 -104h-81c4.66699 28.667 7 63.334 7 104.001v465h-38c-24.667 0 -44.667 -1.66699 -60 -5z
M550.999 628.999l-0.000976562 68.999c18 -2.66699 38.333 -4 61 -4h47c28.667 0 51.334 1.33301 68.001 4c-4.66699 -44 -7 -94.333 -7 -151v-378c0 -41.333 2.33301 -76 7 -104h-81c4.66699 28.667 7 63.334 7 104.001v465h-42c-24.667 0 -44.667 -1.66699 -60 -5z
M499.998 859.998c86.667 0 166.834 -21.3301 240.501 -63.9971s131.834 -100.834 174.501 -174.501s64 -153.834 64 -240.501s-21.333 -166.834 -64 -240.501s-100.834 -132 -174.501 -175s-153.834 -64.5 -240.501 -64.5c-64.667 0 -126.667 12.667 -186 38
s-110.333 59.5 -153 102.5s-76.667 94 -102 153s-38 121.167 -38 186.5c0 64.667 12.667 126.667 38 186s59.333 110.333 102 153s93.667 76.667 153 102s121.333 38 186 38zM499.998 827.001c-122.667 0 -227.667 -43.5 -315 -130.5s-131 -192.167 -131 -315.5
s43.5 -228.666 130.5 -315.999s192.167 -131 315.5 -131s228.5 43.667 315.5 131s130.5 192.666 130.5 315.999s-43.667 228.5 -131 315.5s-192.333 130.5 -315 130.5z" />
    <glyph glyph-name="Japan1.7566" unicode="&#x246b;" 
d="M197 631l0.000976562 68.999c16 -2.66699 36 -4 60 -4h27c29.333 0 51.666 1.33301 66.999 4c-4 -51.333 -6 -101.666 -6 -150.999v-378c0 -39.333 2.33301 -74 7 -104h-81c4.66699 27.333 7 62 7 104v465h-22c-23.333 0 -43 -1.66699 -59 -5zM547.001 514.999
l-69 8.99902c11.333 63.333 28 108.333 50 135c28 32.667 65.667 49 113 49c48 0 85.667 -14.667 113 -44s41 -69.666 41 -120.999c0 -36 -6.83301 -67.167 -20.5 -93.5s-37.834 -55.5 -72.501 -87.5c-53.333 -49.333 -90.166 -89.833 -110.499 -121.5
s-33.833 -69.834 -40.5 -114.501h162c36 0 62.667 1.66699 80 5v-68c-21.333 2.66699 -48.666 4 -81.999 4h-159c-31.333 0 -58 -1 -80 -3c0.666992 4 3.33398 21.667 8.00098 53c7.33301 71.333 34.333 135 81 191c21.333 24.667 53 57.667 95 99
c19.333 19.333 32.666 33.333 39.999 42s13.666 19.334 18.999 32.001c8 18.667 12 40 12 64c0 31.333 -7.83301 56.333 -23.5 75s-36.5 28 -62.5 28c-28 0 -50 -12 -66 -36c-12.667 -18 -22 -50.333 -28 -97zM500.001 859.998c86.667 0 166.834 -21.3301 240.501 -63.9971
s131.834 -100.834 174.501 -174.501s64 -153.834 64 -240.501s-21.333 -166.834 -64 -240.501s-100.834 -132 -174.501 -175s-153.834 -64.5 -240.501 -64.5c-64.667 0 -126.667 12.667 -186 38s-110.333 59.5 -153 102.5s-76.667 94 -102 153s-38 121.167 -38 186.5
c0 64.667 12.667 126.667 38 186s59.333 110.333 102 153s93.667 76.667 153 102s121.333 38 186 38zM500.001 827.001c-122.667 0 -227.667 -43.5 -315 -130.5s-131 -192.167 -131 -315.5s43.5 -228.666 130.5 -315.999s192.167 -131 315.5 -131s228.5 43.667 315.5 131
s130.5 192.666 130.5 315.999s-43.667 228.5 -131 315.5s-192.333 130.5 -315 130.5z" />
    <glyph glyph-name="Japan1.7567" unicode="&#x246c;" 
d="M197 631v68.999c16 -2.66699 36.333 -4 61 -4h27c29.333 0 52 1.33301 68 4c-4.66699 -42 -7 -92.333 -7 -151v-378c0 -41.333 2.33301 -76 7 -104h-81c4.66699 28.667 7 63.334 7 104.001v465h-22c-24 0 -44 -1.66699 -60 -5zM570 364.999l-0.00195312 65.998
c12.667 -2.66699 26.667 -4 42 -4c35.333 0 62.5 10.167 81.5 30.5s28.5 49.833 28.5 88.5c0 32.667 -8 58.167 -24 76.5s-37.667 27.5 -65 27.5c-26 0 -45.667 -7.5 -59 -22.5s-23.666 -40.833 -30.999 -77.5l-67 14c10 43.333 26.333 77.333 49 102
c29.333 28 67.333 42 114 42s83.334 -14.167 110.001 -42.5s40 -66.833 40 -115.5c0 -57.333 -17.333 -99.666 -52 -126.999c-16 -12 -34.667 -19.667 -56 -23c30 -4 54 -13 72 -27c36 -28 54 -73 54 -135c0 -56.667 -15.5 -101.5 -46.5 -134.5s-73.167 -49.5 -126.5 -49.5
c-62 0 -108.333 20.333 -139 61c-15.333 20 -28 50 -38 90l68 17c6.66699 -32 15.667 -55.333 27 -70c18.667 -26 45.334 -39 80.001 -39c32.667 0 58.667 11.833 78 35.5s29 55.167 29 94.5c0 40.667 -10.333 71.834 -31 93.501s-50.334 32.5 -89.001 32.5
c-14 0 -30.333 -1.33301 -49 -4zM499.998 859.997c86.667 0 166.834 -21.3301 240.501 -63.9971s131.834 -100.834 174.501 -174.501s64 -153.834 64 -240.501s-21.333 -166.834 -64 -240.501s-100.834 -132 -174.501 -175s-153.834 -64.5 -240.501 -64.5
c-64.667 0 -126.667 12.667 -186 38s-110.333 59.5 -153 102.5s-76.667 94 -102 153s-38 121.167 -38 186.5c0 64.667 12.667 126.667 38 186s59.333 110.333 102 153s93.667 76.667 153 102s121.333 38 186 38zM499.998 827c-122.667 0 -227.667 -43.5 -315 -130.5
s-131 -192.167 -131 -315.5s43.5 -228.666 130.5 -315.999s192.167 -131 315.5 -131s228.5 43.667 315.5 131s130.5 192.666 130.5 315.999s-43.667 228.5 -131 315.5s-192.333 130.5 -315 130.5z" />
    <glyph glyph-name="Japan1.7568" unicode="&#x246d;" 
d="M197 629v69c16 -2.66699 36.333 -4 61 -4h27c29.333 0 52 1.33301 68 4c-4.66699 -46 -7 -96.333 -7 -151v-378c0 -40.667 2.33301 -75.334 7 -104.001h-81c4.66699 28.667 7 63.334 7 104.001v465h-22c-24 0 -44 -1.66699 -60 -5zM669 694l73.998 -0.000976562
c-2.66699 -40.667 -4 -87.667 -4 -141v-273h18c24 0 44 1.33301 60 4v-66c-15.333 2 -35.666 3 -60.999 3h-17v-66c0 -32.667 1.66699 -62.667 5 -90h-73c4 30.667 6 60.334 6 89.001v67h-158c-31.333 0 -57.666 -1 -78.999 -3l-2 64c8 12.667 20.667 34 38 64l151 263
c11.333 18 25.333 46.333 42 85zM676.998 279.999v208c0 32 1 67 3 105c-9.33301 -22 -22.333 -47.333 -39 -76l-133 -237h169zM499.998 859.999c86.667 0 166.834 -21.3301 240.501 -63.9971s131.834 -100.834 174.501 -174.501s64 -153.834 64 -240.501
s-21.333 -166.834 -64 -240.501s-100.834 -132 -174.501 -175s-153.834 -64.5 -240.501 -64.5c-64.667 0 -126.667 12.667 -186 38s-110.333 59.5 -153 102.5s-76.667 94 -102 153s-38 121.167 -38 186.5c0 64.667 12.667 126.667 38 186s59.333 110.333 102 153
s93.667 76.667 153 102s121.333 38 186 38zM499.998 827.002c-122.667 0 -227.667 -43.5 -315 -130.5s-131 -192.167 -131 -315.5s43.5 -228.666 130.5 -315.999s192.167 -131 315.5 -131s228.5 43.667 315.5 131s130.5 192.666 130.5 315.999s-43.667 228.5 -131 315.5
s-192.333 130.5 -315 130.5z" />
    <glyph glyph-name="Japan1.7569" unicode="&#x246e;" 
d="M198 629l0.000976562 68.999c15.333 -2.66699 35.666 -4 60.999 -4h27c29.333 0 52 1.33301 68 4c-4.66699 -46.667 -7 -97 -7 -151v-378c0 -39.333 2.33301 -74 7 -104h-81c4.66699 28.667 7 63.334 7 104.001v465h-22c-24 0 -44 -1.66699 -60 -5zM563.001 634.999
l-13.001 -178.001c-1.33301 -12 -3 -24 -5 -36c27.333 37.333 62.333 56 105 56c48.667 0 87.5 -18.5 116.5 -55.5s43.5 -86.5 43.5 -148.5c0 -67.333 -16 -120.833 -48 -160.5s-75 -59.5 -129 -59.5c-51.333 0 -91.666 16.333 -120.999 49
c-14.667 16.667 -30.334 45.667 -47.001 87l68 19c6 -25.333 13.333 -44 22 -56c19.333 -25.333 45 -38 77 -38c32.667 0 58.834 14.167 78.501 42.5s29.5 65.833 29.5 112.5s-9 83.167 -27 109.5s-42.667 39.5 -74 39.5c-34 0 -61.333 -14 -82 -42
c-8 -9.33301 -14 -22 -18 -38l-64 5c4 23.333 7.33301 50 10 80l14 195c1.33301 22.667 2 40.667 2 54c0 8.66699 -0.333008 17.334 -1 26.001c19.333 -2.66699 42.666 -4 69.999 -4h122c42.667 0 72.334 1.66699 89.001 5v-69c-17.333 3.33301 -47 5 -89 5h-129z
M500 859.998c86.667 0 166.834 -21.3301 240.501 -63.9971s131.834 -100.834 174.501 -174.501s64 -153.834 64 -240.501s-21.333 -166.834 -64 -240.501s-100.834 -132 -174.501 -175s-153.834 -64.5 -240.501 -64.5c-64.667 0 -126.667 12.667 -186 38
s-110.333 59.5 -153 102.5s-76.667 94 -102 153s-38 121.167 -38 186.5c0 64.667 12.667 126.667 38 186s59.333 110.333 102 153s93.667 76.667 153 102s121.333 38 186 38zM500 827.001c-122.667 0 -227.667 -43.5 -315 -130.5s-131 -192.167 -131 -315.5
s43.5 -228.666 130.5 -315.999s192.167 -131 315.5 -131s228.5 43.667 315.5 131s130.5 192.666 130.5 315.999s-43.667 228.5 -131 315.5s-192.333 130.5 -315 130.5z" />
    <glyph glyph-name="Japan1.7570" unicode="&#x246f;" 
d="M198 629v68.999c16 -2.66699 36.333 -4 61 -4h27c29.333 0 52 1.33301 68 4c-4.66699 -46.667 -7 -97 -7 -151v-378c0 -39.333 2.33301 -74 7 -104h-81c4.66699 28.667 7 63.334 7 104.001v465h-22c-24 0 -44 -1.66699 -60 -5zM799 575.999l-67.0029 -18
c-7.33301 27.333 -15.666 47 -24.999 59c-15.333 20.667 -35.666 31 -60.999 31c-31.333 0 -56.666 -17 -75.999 -51c-24.667 -44.667 -39 -116.667 -43 -216c9.33301 24 20.333 42.667 33 56c27.333 27.333 59.666 41 96.999 41c47.333 0 84.5 -19 111.5 -57
s40.5 -90.333 40.5 -157c0 -62.667 -15.833 -113.5 -47.5 -152.5s-72.5 -58.5 -122.5 -58.5c-72 0 -122.667 41.333 -152 124c-16.667 45.333 -25 112.333 -25 201c0 112.667 20.667 199 62 259c32 46 73.667 69 125 69c44 0 79.333 -15 106 -45
c16.667 -18 31.334 -46.333 44.001 -85zM644.997 420.999c-25.333 0 -47.667 -10.334 -67 -31.001c-28 -28 -42 -68.667 -42 -122c0 -45.333 9.83301 -82.666 29.5 -111.999s44.834 -44 75.501 -44c31.333 0 56.333 14.333 75 43s28 66.667 28 114
s-8.83301 84.5 -26.5 111.5s-41.834 40.5 -72.501 40.5zM499.996 859.998c86.667 0 166.834 -21.3301 240.501 -63.9971s131.834 -100.834 174.501 -174.501s64 -153.834 64 -240.501s-21.333 -166.834 -64 -240.501s-100.834 -132 -174.501 -175
s-153.834 -64.5 -240.501 -64.5c-64.667 0 -126.667 12.667 -186 38s-110.333 59.5 -153 102.5s-76.667 94 -102 153s-38 121.167 -38 186.5c0 64.667 12.667 126.667 38 186s59.333 110.333 102 153s93.667 76.667 153 102s121.333 38 186 38zM499.996 827.001
c-122.667 0 -227.667 -43.5 -315 -130.5s-131 -192.167 -131 -315.5s43.5 -228.666 130.5 -315.999s192.167 -131 315.5 -131s228.5 43.667 315.5 131s130.5 192.666 130.5 315.999s-43.667 228.5 -131 315.5s-192.333 130.5 -315 130.5z" />
    <glyph glyph-name="Japan1.7571" unicode="&#x2470;" 
d="M201 628l-0.000976562 69.001c18 -2.66699 38.333 -4 61 -4h35c28.667 0 51.334 1.33301 68.001 4c-4.66699 -46 -7 -96.333 -7 -151v-378c0 -40.667 2.33301 -75.334 7 -104.001h-81c4.66699 30 7 64.667 7 104v465h-30c-23.333 0 -43.333 -1.66699 -60 -5z
M615.999 64.001l-76.999 -0.000976562c11.333 104 30.833 199.5 58.5 286.5s68.167 181.167 121.5 282.5h-174c-28.667 0 -54.334 -2 -77.001 -6v71c20 -3.33301 46 -5 78 -5h169c32 0 58 1 78 3v-60c-13.333 -16.667 -30.5 -47.167 -51.5 -91.5
s-39.833 -90.166 -56.5 -137.499c-36 -100.667 -59 -215 -69 -343zM500 860c86.667 0 166.834 -21.3301 240.501 -63.9971s131.834 -100.834 174.501 -174.501s64 -153.834 64 -240.501s-21.333 -166.834 -64 -240.501s-100.834 -132 -174.501 -175
s-153.834 -64.5 -240.501 -64.5c-64.667 0 -126.667 12.667 -186 38s-110.333 59.5 -153 102.5s-76.667 94 -102 153s-38 121.167 -38 186.5c0 64.667 12.667 126.667 38 186s59.333 110.333 102 153s93.667 76.667 153 102s121.333 38 186 38zM500 827.003
c-122.667 0 -227.667 -43.5 -315 -130.5s-131 -192.167 -131 -315.5s43.5 -228.666 130.5 -315.999s192.167 -131 315.5 -131s228.5 43.667 315.5 131s130.5 192.666 130.5 315.999s-43.667 228.5 -131 315.5s-192.333 130.5 -315 130.5z" />
    <glyph glyph-name="Japan1.7572" unicode="&#x2471;" 
d="M196 629l0.000976562 69c16 -2.66699 36.333 -4 61 -4h27c29.333 0 51.666 1.33301 66.999 4c-4 -48 -6 -98.333 -6 -151v-378c0 -40.667 2.33301 -75.334 7 -104.001h-81c4.66699 28.667 7 63.334 7 104.001v465h-22c-24 0 -44 -1.66699 -60 -5zM562.001 396
c-16.667 4.66699 -29.666 10.999 -38.999 18.999c-33.333 29.333 -50 72 -50 128c0 50 14.167 89.5 42.5 118.5s67.166 43.5 116.499 43.5c48.667 0 87 -14.5 115 -43.5s42 -68.5 42 -118.5c0 -56.667 -16.667 -99 -50 -127c-9.33301 -8 -22.333 -14.667 -39 -20
c28.667 -8 50.667 -20.667 66 -38c30 -32 45 -74 45 -126c0 -55.333 -16.167 -98.833 -48.5 -130.5s-76.833 -47.5 -133.5 -47.5c-55.333 0 -99 15.667 -131 47s-48 74.333 -48 129c0 52.667 15.333 95.334 46 128.001c16.667 18 38.667 30.667 66 38zM632.002 646.999
c-35.333 0 -61.6689 -15.001 -79.002 -45.001c-9.33301 -15.333 -14 -37.666 -14 -66.999c0 -34.667 8.33301 -62 25 -82s39.334 -30 68.001 -30s51.334 10 68.001 30s25 47.333 25 82c0 36.667 -9 64.667 -27 84c-17.333 18.667 -39.333 28 -66 28zM631.999 365.998
c-35.333 0 -62.666 -11.501 -81.999 -34.501s-29 -54.833 -29 -95.5c0 -39.333 9.5 -69.666 28.5 -90.999s46.167 -32 81.5 -32s62.666 10.833 81.999 32.5s29 52.5 29 92.5s-9.83301 71.333 -29.5 94s-46.5 34 -80.5 34zM499.999 859.997
c86.667 0 166.834 -21.3301 240.501 -63.9971s131.834 -100.834 174.501 -174.501s64 -153.834 64 -240.501s-21.333 -166.834 -64 -240.501s-100.834 -132 -174.501 -175s-153.834 -64.5 -240.501 -64.5c-64.667 0 -126.667 12.667 -186 38s-110.333 59.5 -153 102.5
s-76.667 94 -102 153s-38 121.167 -38 186.5c0 64.667 12.667 126.667 38 186s59.333 110.333 102 153s93.667 76.667 153 102s121.333 38 186 38zM499.999 827c-122.667 0 -227.667 -43.5 -315 -130.5s-131 -192.167 -131 -315.5s43.5 -228.666 130.5 -315.999
s192.167 -131 315.5 -131s228.5 43.667 315.5 131s130.5 192.666 130.5 315.999s-43.667 228.5 -131 315.5s-192.333 130.5 -315 130.5z" />
    <glyph glyph-name="Japan1.7573" unicode="&#x2472;" 
d="M196 631l0.000976562 69c19.333 -2.66699 39.666 -4 60.999 -4h27c29.333 0 52 1.33301 68 4c-4.66699 -46 -7 -96.333 -7 -151v-378c0 -40.667 2.33301 -75.334 7 -104.001h-81c4.66699 28.667 7 63.334 7 104.001v465h-22c-24 0 -44 -1.66699 -60 -5zM473.001 185
l68.0029 18.998c6.66699 -27.333 15 -47.666 25 -60.999c15.333 -20.667 36 -31 62 -31c41.333 0 71.666 28 90.999 84c13.333 38 22 99.333 26 184c-10.667 -26.667 -22.667 -46 -36 -58c-26 -26 -57.333 -39 -94 -39c-46.667 0 -83.834 18.833 -111.501 56.5
s-41.5 88.834 -41.5 153.501s15.667 116.667 47 156s72.333 59 123 59c71.333 0 122 -40.333 152 -121c16.667 -47.333 25 -115.333 25 -204c0 -112 -18.333 -197.333 -55 -256c-30 -48 -73.333 -72 -130 -72c-44 0 -79.667 15 -107 45
c-16.667 18 -31.334 46.333 -44.001 85zM627.004 339.998c25.333 0 47.668 10.3311 67.001 30.998c27.333 28.667 41 69.334 41 122.001c0 44.667 -10 81.834 -30 111.501s-44.667 44.5 -74 44.5c-30.667 0 -55.334 -14.333 -74.001 -43s-28 -67 -28 -115
c0 -46.667 8.66699 -83.5 26 -110.5s41.333 -40.5 72 -40.5zM500.006 859.996c86.667 0 166.834 -21.3301 240.501 -63.9971s131.834 -100.834 174.501 -174.501s64 -153.834 64 -240.501s-21.333 -166.834 -64 -240.501s-100.834 -132 -174.501 -175
s-153.834 -64.5 -240.501 -64.5c-64.667 0 -126.667 12.667 -186 38s-110.333 59.5 -153 102.5s-76.667 94 -102 153s-38 121.167 -38 186.5c0 64.667 12.667 126.667 38 186s59.333 110.333 102 153s93.667 76.667 153 102s121.333 38 186 38zM500.006 826.999
c-122.667 0 -227.667 -43.5 -315 -130.5s-131 -192.167 -131 -315.5s43.5 -228.666 130.5 -315.999s192.167 -131 315.5 -131s228.5 43.667 315.5 131s130.5 192.666 130.5 315.999s-43.667 228.5 -131 315.5s-192.333 130.5 -315 130.5z" />
    <glyph glyph-name="Japan1.7574" unicode="&#x2473;" 
d="M688 54c-114 0 -170.999 109.667 -170.999 329c0 104.667 14.667 184.5 44 239.5s71.666 82.5 126.999 82.5c56.667 0 99.667 -27.667 129 -83s44 -136.333 44 -243c0 -105.333 -14.667 -185.833 -44 -241.5s-72.333 -83.5 -129 -83.5zM688.001 645
c-69.333 0 -104 -88 -104 -264c0 -177.333 34.333 -266 103 -266c71.333 0 107 88.333 107 265s-35.333 265 -106 265zM501.001 859c86.667 0 166.834 -21.3291 240.501 -63.9961s131.834 -100.834 174.501 -174.501s64 -153.834 64 -240.501s-21.333 -166.834 -64 -240.501
s-100.834 -131.834 -174.501 -174.501s-153.834 -64 -240.501 -64c-65.333 0 -127.5 12.667 -186.5 38s-110 59.333 -153 102s-77.167 93.667 -102.5 153s-38 121.333 -38 186s12.667 126.667 38 186s59.5 110.333 102.5 153s94 76.667 153 102s121.167 38 186.5 38z
M400.001 65.0039h-158.004c-20.667 0 -39.667 -0.333008 -57 -1c89.333 -87.333 194.666 -131 315.999 -131c123.333 0 228.666 43.667 315.999 131s131 192.666 131 315.999s-43.667 228.5 -131 315.5s-192.666 130.5 -315.999 130.5s-228.666 -43.5 -315.999 -130.5
s-131 -192.167 -131 -315.5c0 -111.333 37.667 -210.333 113 -297l4 33c8 73.333 39 141 93 203c4.66699 6 19.334 22 44.001 48l45 46c18 18.667 31 34.334 39 47.001c14 24 21 51.333 21 82c0 31.333 -7.83301 56.5 -23.5 75.5s-36.5 28.5 -62.5 28.5
c-28.667 0 -51 -12.333 -67 -37c-12 -18 -20.667 -50.333 -26 -97l-67 9c11.333 63.333 29.833 109.833 55.5 139.5s60.834 44.5 105.501 44.5c46.667 0 83.334 -14.667 110.001 -44s40 -69.666 40 -120.999c0 -36 -6.66699 -67.167 -20 -93.5s-37.333 -55.833 -72 -88.5
c-53.333 -50.667 -89.666 -91.334 -108.999 -122.001s-32.666 -68 -39.999 -112h165c35.333 0 61.333 1.66699 78 5v-68c-20.667 2.66699 -47.334 4 -80.001 4z" />
    <glyph glyph-name="Japan1.8071" unicode="&#x2474;" 
d="M179 -86l-35 -16.001c-22.667 43.333 -39.334 78 -50.001 104c-49.333 120.667 -74 246.667 -74 378c0 132.667 24.667 258.667 74 378c10.667 25.333 27.334 60.333 50.001 105l35 -16c-22.667 -40 -39 -73 -49 -99c-48 -113.333 -72 -236 -72 -368
c0 -131.333 24 -253.666 72 -366.999c10 -26 26.333 -59 49 -99zM857 -102.001l-35 16.001c22.667 40 39 73 49 99c48 113.333 72 235.666 72 366.999s-24 254 -72 368c-10 26 -26.333 59 -49 99l35 16c22.667 -44.667 39.334 -79.667 50.001 -105
c49.333 -120.667 74 -246.667 74 -378s-24.667 -257.333 -74 -378c-10.667 -26 -27.334 -60.667 -50.001 -104zM343 686l0.00195312 79c21.333 -3.33301 48.666 -5 81.999 -5h63c28 0 55.667 1.66699 83 5c-6 -61.333 -9 -116.666 -9 -165.999v-486
c0 -42.667 2.66699 -80.334 8 -113.001h-95c5.33301 31.333 8 69 8 113v579h-54c-28.667 0 -57.334 -2 -86.001 -6z" />
    <glyph glyph-name="Japan1.8072" unicode="&#x2475;" 
d="M179 -86l-35 -16.001c-22.667 43.333 -39.334 78 -50.001 104c-49.333 120.667 -74 246.667 -74 378c0 132.667 24.667 258.667 74 378c10.667 25.333 27.334 60.333 50.001 105l35 -16c-22.667 -40 -39 -73 -49 -99c-48 -113.333 -72 -236 -72 -368
c0 -131.333 24 -253.666 72 -366.999c10 -26 26.333 -59 49 -99zM857 -102.001l-35 16.001c22.667 40 39 73 49 99c48 113.333 72 235.666 72 366.999s-24 254 -72 368c-10 26 -26.333 59 -49 99l35 16c22.667 -44.667 39.334 -79.667 50.001 -105
c49.333 -120.667 74 -246.667 74 -378s-24.667 -257.333 -74 -378c-10.667 -26 -27.334 -60.667 -50.001 -104zM635 0l-303.999 0.00292969c-48.667 0 -85.334 -2 -110.001 -6c8.66699 61.333 18.334 105.666 29.001 132.999c24 61.333 67.333 118.666 130 171.999
c22 18.667 73 55.334 153 110.001c49.333 33.333 83.666 62.666 102.999 87.999s29 53.333 29 84c0 38 -15 68.333 -45 91s-70.333 34 -121 34c-66.667 0 -115 -21.667 -145 -65c-17.333 -24.667 -29 -58.334 -35 -101.001l-84 15c13.333 63.333 34.333 111 63 143
c45.333 51.333 112.333 77 201 77c75.333 0 135.5 -17.5 180.5 -52.5s67.5 -82.167 67.5 -141.5c0 -51.333 -19.667 -98.666 -59 -141.999c-14.667 -16.667 -32.167 -32.667 -52.5 -48s-59.5 -42.333 -117.5 -81c-66.667 -44.667 -114.667 -85.667 -144 -123
c-28 -36.667 -47 -75.334 -57 -116.001h319c46 0 86.667 2.33301 122 7v-84c-40 4 -81 6 -123 6z" />
    <glyph glyph-name="Japan1.8073" unicode="&#x2476;" 
d="M213 164l83.998 20.001c8 -25.333 16.333 -44.5 25 -57.5s20.667 -25.167 36 -36.5c34 -24 77 -36 129 -36c58 0 104 14 138 42s51 65.667 51 113c0 50 -17.333 88 -52 114s-85.334 39 -152.001 39c-23.333 0 -50 -1.66699 -80 -5v78c25.333 -3.33301 50 -5 74 -5
c66.667 0 115.334 15.333 146.001 46c26.667 25.333 40 57.666 40 96.999c0 42.667 -14.167 76 -42.5 100s-67.833 36 -118.5 36c-61.333 0 -105.666 -17.667 -132.999 -53c-12 -15.333 -22.667 -39 -32 -71l-83 18c14.667 44.667 32.667 78 54 100
c44.667 48.667 111 73 199 73c72.667 0 130.334 -17.667 173.001 -53s64 -83 64 -143c0 -64.667 -23.333 -113.334 -70 -146.001c-22 -16 -53.333 -28 -94 -36c51.333 -5.33301 92.333 -19.666 123 -42.999c44.667 -34.667 67 -85 67 -151
c0 -67.333 -24.333 -120.666 -73 -159.999s-114.667 -59 -198 -59c-101.333 0 -176 27.333 -224 82c-18.667 21.333 -35.667 53.666 -51 96.999zM178.998 -85.999l-35 -16.001c-22.667 43.333 -39.334 78 -50.001 104c-49.333 120.667 -74 246.667 -74 378
c0 132.667 24.667 258.667 74 378c10.667 25.333 27.334 60.333 50.001 105l35 -16c-22.667 -40 -39 -73 -49 -99c-48 -113.333 -72 -236 -72 -368c0 -131.333 24 -253.666 72 -366.999c10 -26 26.333 -59 49 -99zM856.998 -102l-35 16.001c22.667 40 39 73 49 99
c48 113.333 72 235.666 72 366.999s-24 254 -72 368c-10 26 -26.333 59 -49 99l35 16c22.667 -44.667 39.334 -79.667 50.001 -105c49.333 -120.667 74 -246.667 74 -378s-24.667 -257.333 -74 -378c-10.667 -26 -27.334 -60.667 -50.001 -104z" />
    <glyph glyph-name="Japan1.8074" unicode="&#x2477;" 
d="M190 190v74.999c5.33301 6 27 31.667 65 77l252 316c28 34.667 53 68.667 75 102h75c-4 -47.333 -6 -103.666 -6 -168.999v-328h38c35.333 0 70.333 2.33301 105 7v-83c-34.667 4.66699 -70 7 -106 7h-37v-86c0 -39.333 2.66699 -75.333 8 -108h-91
c5.33301 31.333 8 67.333 8 108v86h-267c-50 0 -89.667 -1.33301 -119 -4zM577 261.999v254c0 50 2 95.333 6 136c-18.667 -26.667 -43.667 -60 -75 -100l-229 -290h298zM179 -86.001l-35 -16.001c-22.667 43.333 -39.334 78 -50.001 104
c-49.333 120.667 -74 246.667 -74 378c0 132.667 24.667 258.667 74 378c10.667 25.333 27.334 60.333 50.001 105l35 -16c-22.667 -40 -39 -73 -49 -99c-48 -113.333 -72 -236 -72 -368c0 -131.333 24 -253.666 72 -366.999c10 -26 26.333 -59 49 -99zM857 -102.002
l-35 16.001c22.667 40 39 73 49 99c48 113.333 72 235.666 72 366.999s-24 254 -72 368c-10 26 -26.333 59 -49 99l35 16c22.667 -44.667 39.334 -79.667 50.001 -105c49.333 -120.667 74 -246.667 74 -378s-24.667 -257.333 -74 -378
c-10.667 -26 -27.334 -60.667 -50.001 -104z" />
    <glyph glyph-name="Japan1.8075" unicode="&#x2478;" 
d="M179 -86l-35 -16.001c-22.667 43.333 -39.334 78 -50.001 104c-49.333 120.667 -74 246.667 -74 378c0 132.667 24.667 258.667 74 378c10.667 25.333 27.334 60.333 50.001 105l35 -16c-22.667 -40 -39 -73 -49 -99c-48 -113.333 -72 -236 -72 -368
c0 -131.333 24 -253.666 72 -366.999c10 -26 26.333 -59 49 -99zM857 -102.001l-35 16.001c22.667 40 39 73 49 99c48 113.333 72 235.666 72 366.999s-24 254 -72 368c-10 26 -26.333 59 -49 99l35 16c22.667 -44.667 39.334 -79.667 50.001 -105
c49.333 -120.667 74 -246.667 74 -378s-24.667 -257.333 -74 -378c-10.667 -26 -27.334 -60.667 -50.001 -104zM369 691l-20.999 -220.998c-1.33301 -12 -4 -27 -8 -45c48 46 106.333 69 175 69c73.333 0 133.333 -22.667 180 -68c44.667 -44 67 -103 67 -177
c0 -80.667 -24.333 -144.834 -73 -192.501s-114.334 -71.5 -197.001 -71.5c-79.333 0 -143 23 -191 69c-21.333 20 -42.333 51 -63 93l82 25c9.33301 -25.333 20 -45 32 -59c35.333 -39.333 82.666 -59 141.999 -59c56 0 101.167 17.5 135.5 52.5s51.5 81.167 51.5 138.5
c0 55.333 -15.833 99.666 -47.5 132.999s-74.167 50 -127.5 50c-51.333 0 -95 -14 -131 -42c-21.333 -16.667 -36.666 -36.667 -45.999 -60l-75 7c6.66699 32.667 11.667 67 15 103l22 226c2 29.333 3 49.333 3 60c0 12 -0.666992 26.333 -2 43
c26 -3.33301 61.333 -5 106 -5h206c42.667 0 81.667 2.66699 117 8v-85c-34 5.33301 -73 8 -117 8h-235z" />
    <glyph glyph-name="Japan1.8076" unicode="&#x2479;" 
d="M179 -86l-35 -16.001c-22.667 43.333 -39.334 78 -50.001 104c-49.333 120.667 -74 246.667 -74 378c0 132.667 24.667 258.667 74 378c10.667 25.333 27.334 60.333 50.001 105l35 -16c-22.667 -40 -39 -73 -49 -99c-48 -113.333 -72 -236 -72 -368
c0 -131.333 24 -253.666 72 -366.999c10 -26 26.333 -59 49 -99zM857 -102.001l-35 16.001c22.667 40 39 73 49 99c48 113.333 72 235.666 72 366.999s-24 254 -72 368c-10 26 -26.333 59 -49 99l35 16c22.667 -44.667 39.334 -79.667 50.001 -105
c49.333 -120.667 74 -246.667 74 -378s-24.667 -257.333 -74 -378c-10.667 -26 -27.334 -60.667 -50.001 -104zM743 620l-79.999 -26c-12 28.667 -23.667 49.667 -35 63c-29.333 33.333 -69 50 -119 50c-78.667 0 -136.334 -41.333 -173.001 -124
c-13.333 -30 -22.833 -59.667 -28.5 -89s-10.167 -71.333 -13.5 -126c16 28 32.667 49.333 50 64c46.667 40.667 103 61 169 61c77.333 0 138.5 -22.5 183.5 -67.5s67.5 -106.167 67.5 -183.5s-24 -139.5 -72 -186.5s-111.333 -70.5 -190 -70.5
c-75.333 0 -135.666 21 -180.999 63c-67.333 62 -101 166.667 -101 314c0 133.333 25.333 234.333 76 303c53.333 72.667 123.666 109 210.999 109c62 0 112.667 -14 152 -42c17.333 -12.667 32 -27 44 -43s25.333 -39 40 -69zM503.001 53
c32.667 0 63.001 7.33105 91.001 21.998s49.667 34.334 65 59.001c17.333 29.333 26 65 26 107c0 59.333 -15.833 105 -47.5 137s-76.834 48 -135.501 48c-54 0 -100 -19 -138 -57c-33.333 -33.333 -50 -75.666 -50 -126.999c0 -54 18 -99 54 -135s81 -54 135 -54z" />
    <glyph glyph-name="Japan1.8077" unicode="&#x247a;" 
d="M179 -86l-35 -16.001c-22.667 43.333 -39.334 78 -50.001 104c-49.333 120.667 -74 246.667 -74 378c0 132.667 24.667 258.667 74 378c10.667 25.333 27.334 60.333 50.001 105l35 -16c-22.667 -40 -39 -73 -49 -99c-48 -113.333 -72 -236 -72 -368
c0 -131.333 24 -253.666 72 -366.999c10 -26 26.333 -59 49 -99zM857 -102.001l-35 16.001c22.667 40 39 73 49 99c48 113.333 72 235.666 72 366.999s-24 254 -72 368c-10 26 -26.333 59 -49 99l35 16c22.667 -44.667 39.334 -79.667 50.001 -105
c49.333 -120.667 74 -246.667 74 -378s-24.667 -257.333 -74 -378c-10.667 -26 -27.334 -60.667 -50.001 -104zM775 742l-0.000976562 -73.001c-15.333 -12 -40 -44 -74 -96c-44.667 -69.333 -79.5 -129 -104.5 -179s-47.167 -105.667 -66.5 -167
c-22 -70.667 -39.667 -154 -53 -250h-95c16 90.667 32.5 163.834 49.5 219.501s40.833 115.5 71.5 179.5c24 50 48.833 95.667 74.5 137s60.834 92.333 105.501 153h-325c-40 0 -77.667 -2.33301 -113 -7v85c36.667 -4.66699 74.667 -7 114 -7h300
c48 0 86.667 1.66699 116 5z" />
    <glyph glyph-name="Japan1.8078" unicode="&#x247b;" 
d="M179 -86l-35 -16.001c-22.667 43.333 -39.334 78 -50.001 104c-49.333 120.667 -74 246.667 -74 378c0 132.667 24.667 258.667 74 378c10.667 25.333 27.334 60.333 50.001 105l35 -16c-22.667 -40 -39 -73 -49 -99c-48 -113.333 -72 -236 -72 -368
c0 -131.333 24 -253.666 72 -366.999c10 -26 26.333 -59 49 -99zM857 -102.001l-35 16.001c22.667 40 39 73 49 99c48 113.333 72 235.666 72 366.999s-24 254 -72 368c-10 26 -26.333 59 -49 99l35 16c22.667 -44.667 39.334 -79.667 50.001 -105
c49.333 -120.667 74 -246.667 74 -378s-24.667 -257.333 -74 -378c-10.667 -26 -27.334 -60.667 -50.001 -104zM601 398c38 -5.33301 72.334 -19.668 103.001 -43.001c50 -38 75 -90.333 75 -157c0 -68.667 -24 -121.5 -72 -158.5s-116 -55.5 -204 -55.5
c-91.333 0 -161.5 18.5 -210.5 55.5s-73.5 89.833 -73.5 158.5c0 72 29.333 127 88 165c26 18 56.333 29.667 91 35c-44.667 8 -80.167 28.333 -106.5 61s-39.5 72 -39.5 118c0 61.333 22.167 109.833 66.5 145.5s104.166 53.5 179.499 53.5c76.667 0 137 -17.667 181 -53
s66 -83.666 66 -144.999c0 -46.667 -13 -86.167 -39 -118.5s-61 -52.833 -105 -61.5zM498.001 708.998c-50.667 0 -91.334 -12.5 -122.001 -37.5s-46 -58.167 -46 -99.5c0 -44.667 15 -79.667 45 -105s71.333 -38 124 -38s93.834 12.667 123.501 38s44.5 60.333 44.5 105
c0 42 -15.333 75.333 -46 100s-71.667 37 -123 37zM499.001 359.998c-61.333 0 -109.669 -14 -145.002 -42s-53 -66.333 -53 -115c0 -47.333 17.333 -84.333 52 -111s83 -40 145 -40c72.667 0 126.334 17.333 161.001 52c25.333 23.333 38 56.333 38 99
c0 48.667 -17.667 87 -53 115s-83.666 42 -144.999 42z" />
    <glyph glyph-name="Japan1.8079" unicode="&#x247c;" 
d="M179 -86l-35 -16.001c-22.667 43.333 -39.334 78 -50.001 104c-49.333 120.667 -74 246.667 -74 378c0 132.667 24.667 258.667 74 378c10.667 25.333 27.334 60.333 50.001 105l35 -16c-22.667 -40 -39 -73 -49 -99c-48 -113.333 -72 -236 -72 -368
c0 -131.333 24 -253.666 72 -366.999c10 -26 26.333 -59 49 -99zM857 -102.001l-35 16.001c22.667 40 39 73 49 99c48 113.333 72 235.666 72 366.999s-24 254 -72 368c-10 26 -26.333 59 -49 99l35 16c22.667 -44.667 39.334 -79.667 50.001 -105
c49.333 -120.667 74 -246.667 74 -378s-24.667 -257.333 -74 -378c-10.667 -26 -27.334 -60.667 -50.001 -104zM236 140l81.998 26c10.667 -29.333 22.667 -51 36 -65c28 -31.333 70 -47 126 -47c71.333 0 125 30.667 161 92c20 35.333 34.333 78.333 43 129
c4 22.667 7 61.334 9 116.001c-11.333 -22 -24.666 -40.333 -39.999 -55c-49.333 -46.667 -110 -70 -182 -70c-76 0 -136 22 -180 66c-45.333 45.333 -68 105.333 -68 180c0 79.333 24.667 143 74 191s115 72 197 72c56 0 105.667 -15 149 -45s74.333 -71.333 93 -124
c19.333 -52 29 -122.333 29 -211c0 -142 -27.667 -247.333 -83 -316c-49.333 -62 -118.666 -93 -207.999 -93c-69.333 0 -125.333 18 -168 54c-24.667 21.333 -48 54.666 -70 99.999zM479.998 333c55.333 0 101.5 17.667 138.5 53s55.5 79.333 55.5 132
c0 54 -17.833 99 -53.5 135s-80.167 54 -133.5 54c-33.333 0 -64 -7.5 -92 -22.5s-50.333 -35.833 -67 -62.5c-17.333 -28 -26 -63 -26 -105c0 -56.667 16 -101.5 48 -134.5s75.333 -49.5 130 -49.5z" />
    <glyph glyph-name="Japan1.8080" unicode="&#x247d;" 
d="M159 689l-0.000976562 75.001c16.667 -2.66699 38.334 -4 65.001 -4h30c31.333 0 55.333 1.33301 72 4c-4.66699 -47.333 -7 -101 -7 -161v-490c0 -44.667 2.33301 -82.334 7 -113.001h-85c4.66699 32 7 69.667 7 113v581h-28c-24.667 0 -45 -1.66699 -61 -5z
M645.999 -14.999c-62.667 0 -110.168 33.333 -142.501 100s-48.5 164.667 -48.5 294s16.333 227.5 49 294.5s80.334 100.5 143.001 100.5c64 0 112.5 -33.333 145.5 -100s49.5 -165 49.5 -295c0 -158.667 -25.667 -270.667 -77 -336c-30 -38.667 -69.667 -58 -119 -58z
M647.998 708.001c-80.667 0 -121 -108.334 -121 -325.001c0 -220 40.333 -330 121 -330c41.333 0 72 26.833 92 80.5s30 136.834 30 249.501c0 216.667 -40.667 325 -122 325zM178.998 -86l-35 -16.001c-22.667 43.333 -39.334 78 -50.001 104
c-49.333 120.667 -74 246.667 -74 378c0 132.667 24.667 258.667 74 378c10.667 25.333 27.334 60.333 50.001 105l35 -16c-22.667 -40 -39 -73 -49 -99c-48 -113.333 -72 -236 -72 -368c0 -131.333 24 -253.666 72 -366.999c10 -26 26.333 -59 49 -99zM856.998 -102.001
l-35 16.001c22.667 40 39 73 49 99c48 113.333 72 235.666 72 366.999s-24 254 -72 368c-10 26 -26.333 59 -49 99l35 16c22.667 -44.667 39.334 -79.667 50.001 -105c49.333 -120.667 74 -246.667 74 -378s-24.667 -257.333 -74 -378
c-10.667 -26 -27.334 -60.667 -50.001 -104z" />
    <glyph glyph-name="Japan1.8081" unicode="&#x247e;" 
d="M193 689l-0.000976562 76c18.667 -3.33301 42.334 -5 71.001 -5h41c31.333 0 56 1.33301 74 4c-4.66699 -47.333 -7 -101 -7 -161v-490c0 -43.333 2.33301 -81 7 -113h-87c4.66699 32 7 69.667 7 113v581h-41c-26 0 -47.667 -1.66699 -65 -5zM555.999 690l0.000976562 74
c19.333 -2.66699 42.666 -4 69.999 -4h45c31.333 0 56 1.33301 74 4c-4.66699 -46 -7 -99.667 -7 -161v-489c0 -45.333 2.33301 -83.333 7 -114h-87c4.66699 32.667 7 70.667 7 114v581h-42c-24.667 0 -47 -1.66699 -67 -5zM179 -86l-35 -16.001
c-22.667 43.333 -39.334 78 -50.001 104c-49.333 120.667 -74 246.667 -74 378c0 132.667 24.667 258.667 74 378c10.667 25.333 27.334 60.333 50.001 105l35 -16c-22.667 -40 -39 -73 -49 -99c-48 -113.333 -72 -236 -72 -368c0 -131.333 24 -253.666 72 -366.999
c10 -26 26.333 -59 49 -99zM857 -102.001l-35 16.001c22.667 40 39 73 49 99c48 113.333 72 235.666 72 366.999s-24 254 -72 368c-10 26 -26.333 59 -49 99l35 16c22.667 -44.667 39.334 -79.667 50.001 -105c49.333 -120.667 74 -246.667 74 -378
s-24.667 -257.333 -74 -378c-10.667 -26 -27.334 -60.667 -50.001 -104z" />
    <glyph glyph-name="Japan1.8082" unicode="&#x247f;" 
d="M730 0l-181.002 -0.000976562c-35.333 0 -67 -1 -95 -3c2 13.333 4 29.666 6 48.999c9.33301 78.667 38.333 152.334 87 221.001c18.667 26 64.667 78 138 156c28.667 30.667 48 56.667 58 78c10.667 24.667 16 52.334 16 83.001c0 37.333 -9.66699 67.333 -29 90
s-44.666 34 -75.999 34c-39.333 0 -68 -16.667 -86 -50c-13.333 -24 -22.666 -63.333 -27.999 -118l-74 12c8.66699 65.333 23.334 114.666 44.001 147.999c31.333 50 79 75 143 75c55.333 0 98.833 -17.667 130.5 -53s47.5 -83.333 47.5 -144
c0 -61.333 -20 -116.333 -60 -165c-15.333 -19.333 -46.666 -52.666 -93.999 -99.999c-42.667 -43.333 -74.334 -83.333 -95.001 -120s-35.334 -79 -44.001 -127h193c42 0 74.333 2 97 6v-76c-26 2.66699 -58.667 4 -98 4zM178.998 -86.001l-35 -16.001
c-22.667 43.333 -39.334 78 -50.001 104c-49.333 120.667 -74 246.667 -74 378c0 132.667 24.667 258.667 74 378c10.667 25.333 27.334 60.333 50.001 105l35 -16c-22.667 -40 -39 -73 -49 -99c-48 -113.333 -72 -236 -72 -368c0 -131.333 24 -253.666 72 -366.999
c10 -26 26.333 -59 49 -99zM856.998 -102.002l-35 16.001c22.667 40 39 73 49 99c48 113.333 72 235.666 72 366.999s-24 254 -72 368c-10 26 -26.333 59 -49 99l35 16c22.667 -44.667 39.334 -79.667 50.001 -105c49.333 -120.667 74 -246.667 74 -378
s-24.667 -257.333 -74 -378c-10.667 -26 -27.334 -60.667 -50.001 -104zM158.998 688.999l-0.000976562 75.001c16.667 -2.66699 38.334 -4 65.001 -4h30c31.333 0 55.333 1.33301 72 4c-4.66699 -47.333 -7 -101 -7 -161v-490c0 -44.667 2.33301 -82.334 7 -113.001h-85
c4.66699 32 7 69.667 7 113v581h-28c-24.667 0 -45 -1.66699 -61 -5z" />
    <glyph glyph-name="Japan1.8083" unicode="&#x2480;" 
d="M437 166l71.998 19.001c8.66699 -46 21.334 -78.667 38.001 -98c19.333 -23.333 46 -35 80 -35c36 0 64.667 14.167 86 42.5s32 66.5 32 114.5c0 60.667 -13.667 103 -41 127c-23.333 21.333 -53.666 32 -90.999 32c-18 0 -35 -2 -51 -6v75
c14.667 -3.33301 29.667 -5 45 -5c36.667 0 65.667 13.167 87 39.5s32 62.5 32 108.5c0 40.667 -8.66699 72.667 -26 96s-41.333 35 -72 35c-28 0 -49.833 -9.66699 -65.5 -29s-26.834 -51 -33.501 -95l-71 16c12.667 57.333 30 98.333 52 123
c29.333 33.333 69.666 50 120.999 50c50.667 0 90.834 -17.333 120.501 -52s44.5 -81.334 44.5 -140.001c0 -102 -38.333 -162.333 -115 -181c30 -4 55.667 -15.333 77 -34c38.667 -33.333 58 -86.666 58 -159.999c0 -70 -16.667 -124.833 -50 -164.5
s-79.666 -59.5 -138.999 -59.5c-70 0 -121.333 27 -154 81c-14.667 25.333 -26.667 58.666 -36 99.999zM178.998 -85.999l-35 -16.001c-22.667 43.333 -39.334 78 -50.001 104c-49.333 120.667 -74 246.667 -74 378c0 132.667 24.667 258.667 74 378
c10.667 25.333 27.334 60.333 50.001 105l35 -16c-22.667 -40 -39 -73 -49 -99c-48 -113.333 -72 -236 -72 -368c0 -131.333 24 -253.666 72 -366.999c10 -26 26.333 -59 49 -99zM856.998 -102l-35 16.001c22.667 40 39 73 49 99c48 113.333 72 235.666 72 366.999
s-24 254 -72 368c-10 26 -26.333 59 -49 99l35 16c22.667 -44.667 39.334 -79.667 50.001 -105c49.333 -120.667 74 -246.667 74 -378s-24.667 -257.333 -74 -378c-10.667 -26 -27.334 -60.667 -50.001 -104zM158.998 689.001l-0.000976562 75.001
c16.667 -2.66699 38.334 -4 65.001 -4h30c31.333 0 55.333 1.33301 72 4c-4.66699 -47.333 -7 -101 -7 -161v-490c0 -44.667 2.33301 -82.334 7 -113.001h-85c4.66699 32 7 69.667 7 113v581h-28c-24.667 0 -45 -1.66699 -61 -5z" />
    <glyph glyph-name="Japan1.8084" unicode="&#x2481;" 
d="M685 760l73.002 -0.000976562c-3.33301 -46 -5 -102.333 -5 -169v-334h19c34 0 60 1.66699 78 5v-72c-14.667 2 -41.334 3 -80.001 3h-17v-84c0 -35.333 2 -71.666 6 -108.999h-77c4 40 6 76 6 108v85h-187c-36.667 0 -65.334 -1.33301 -86.001 -4v73
c12 18 27 43.667 45 77l177 318c16 28 32 62.333 48 103zM688.002 256.999v251c0 28 1.66699 70.667 5 128c-9.33301 -21.333 -24.333 -51.333 -45 -90l-159 -289h199zM179.002 -86.001l-35 -16.001c-22.667 43.333 -39.334 78 -50.001 104
c-49.333 120.667 -74 246.667 -74 378c0 132.667 24.667 258.667 74 378c10.667 25.333 27.334 60.333 50.001 105l35 -16c-22.667 -40 -39 -73 -49 -99c-48 -113.333 -72 -236 -72 -368c0 -131.333 24 -253.666 72 -366.999c10 -26 26.333 -59 49 -99zM857.002 -102.002
l-35 16.001c22.667 40 39 73 49 99c48 113.333 72 235.666 72 366.999s-24 254 -72 368c-10 26 -26.333 59 -49 99l35 16c22.667 -44.667 39.334 -79.667 50.001 -105c49.333 -120.667 74 -246.667 74 -378s-24.667 -257.333 -74 -378
c-10.667 -26 -27.334 -60.667 -50.001 -104zM159.002 688.999l-0.000976562 75.001c16.667 -2.66699 38.334 -4 65.001 -4h30c31.333 0 55.333 1.33301 72 4c-4.66699 -47.333 -7 -101 -7 -161v-490c0 -44.667 2.33301 -82.334 7 -113.001h-85c4.66699 32 7 69.667 7 113
v581h-28c-24.667 0 -45 -1.66699 -61 -5z" />
    <glyph glyph-name="Japan1.8085" unicode="&#x2482;" 
d="M554 694l-14.9971 -216.001c-0.666992 -18 -2.33398 -33 -5.00098 -45c9.33301 13.333 18.333 24 27 32c24.667 20.667 55 31 91 31c52.667 0 95.167 -22.5 127.5 -67.5s48.5 -104.167 48.5 -177.5c0 -82 -17.333 -146.833 -52 -194.5s-82 -71.5 -142 -71.5
s-107.667 23.333 -143 70c-16 21.333 -30.667 53 -44 95l70 23c8.66699 -34 19 -59.667 31 -77c20.667 -29.333 49 -44 85 -44c37.333 0 67.333 17.667 90 53s34 82.333 34 141s-10.167 104.167 -30.5 136.5s-48.833 48.5 -85.5 48.5c-36 0 -66 -14.667 -90 -44
c-10.667 -13.333 -20 -32.666 -28 -57.999l-66 7c5.33301 29.333 9.33301 64 12 104l16 224c2 26.667 3 53.667 3 81c0 6.66699 -0.333008 12.667 -1 18c29.333 -2 60.666 -3 93.999 -3h131c41.333 0 70.666 2 87.999 6v-78c-22 4 -51.333 6 -88 6h-158zM179.003 -86.001
l-35 -16.001c-22.667 43.333 -39.334 78 -50.001 104c-49.333 120.667 -74 246.667 -74 378c0 132.667 24.667 258.667 74 378c10.667 25.333 27.334 60.333 50.001 105l35 -16c-22.667 -40 -39 -73 -49 -99c-48 -113.333 -72 -236 -72 -368
c0 -131.333 24 -253.666 72 -366.999c10 -26 26.333 -59 49 -99zM857.003 -102.002l-35 16.001c22.667 40 39 73 49 99c48 113.333 72 235.666 72 366.999s-24 254 -72 368c-10 26 -26.333 59 -49 99l35 16c22.667 -44.667 39.334 -79.667 50.001 -105
c49.333 -120.667 74 -246.667 74 -378s-24.667 -257.333 -74 -378c-10.667 -26 -27.334 -60.667 -50.001 -104zM161.003 688.999l-0.000976562 75.001c16.667 -2.66699 38.334 -4 65.001 -4h30c31.333 0 55.333 1.33301 72 4c-4.66699 -47.333 -7 -101 -7 -161v-490
c0 -44.667 2.33301 -82.334 7 -113.001h-85c4.66699 32 7 69.667 7 113v581h-28c-24.667 0 -45 -1.66699 -61 -5z" />
    <glyph glyph-name="Japan1.8086" unicode="&#x2483;" 
d="M824 620l-69.999 -24c-10 38 -20.667 64.667 -32 80c-15.333 22.667 -36.333 34 -63 34c-38.667 0 -68.334 -22 -89.001 -66c-26.667 -53.333 -43.667 -140 -51 -260c11.333 27.333 24.666 49.666 39.999 66.999c28.667 30.667 64 46 106 46
c52.667 0 94.334 -22.5 125.001 -67.5s46 -106.5 46 -184.5c0 -77.333 -17.167 -140 -51.5 -188s-79.166 -72 -134.499 -72c-65.333 0 -115.333 33.333 -150 100c-30.667 60.667 -46 153.334 -46 278.001c0 133.333 17.833 235.333 53.5 306s87.167 106 154.5 106
c55.333 0 97.666 -23.667 126.999 -71c13.333 -20.667 25 -48.667 35 -84zM654.001 431c-42 0 -75.332 -24.334 -99.999 -73.001c-14.667 -30 -22 -68 -22 -114c0 -57.333 10.833 -103.666 32.5 -138.999s50.167 -53 85.5 -53c34.667 0 63 17.167 85 51.5
s33 78.833 33 133.5c0 62.667 -9.83301 110.667 -29.5 144s-47.834 50 -84.501 50zM179.002 -86.001l-35 -16.001c-22.667 43.333 -39.334 78 -50.001 104c-49.333 120.667 -74 246.667 -74 378c0 132.667 24.667 258.667 74 378c10.667 25.333 27.334 60.333 50.001 105
l35 -16c-22.667 -40 -39 -73 -49 -99c-48 -113.333 -72 -236 -72 -368c0 -131.333 24 -253.666 72 -366.999c10 -26 26.333 -59 49 -99zM857.002 -102.002l-35 16.001c22.667 40 39 73 49 99c48 113.333 72 235.666 72 366.999s-24 254 -72 368c-10 26 -26.333 59 -49 99
l35 16c22.667 -44.667 39.334 -79.667 50.001 -105c49.333 -120.667 74 -246.667 74 -378s-24.667 -257.333 -74 -378c-10.667 -26 -27.334 -60.667 -50.001 -104zM159.002 688.999l-0.000976562 75.001c16.667 -2.66699 38.334 -4 65.001 -4h30
c31.333 0 55.333 1.33301 72 4c-4.66699 -47.333 -7 -101 -7 -161v-490c0 -44.667 2.33301 -82.334 7 -113.001h-85c4.66699 32 7 69.667 7 113v581h-28c-24.667 0 -45 -1.66699 -61 -5z" />
    <glyph glyph-name="Japan1.8087" unicode="&#x2484;" 
d="M622 -10h-83c15.333 127.333 35.666 234.333 60.999 321c18.667 62.667 38.834 120 60.501 172s53.167 118.667 94.5 200h-216c-36 0 -66.667 -2.33301 -92 -7v80c26 -4 57 -6 93 -6h202c40 0 70.667 1.33301 92 4v-67c-12 -14 -26.667 -39.333 -44 -76
c-56 -115.333 -97 -224 -123 -326c-19.333 -76 -34.333 -174.333 -45 -295zM179 -86l-35 -16.001c-22.667 43.333 -39.334 78 -50.001 104c-49.333 120.667 -74 246.667 -74 378c0 132.667 24.667 258.667 74 378c10.667 25.333 27.334 60.333 50.001 105l35 -16
c-22.667 -40 -39 -73 -49 -99c-48 -113.333 -72 -236 -72 -368c0 -131.333 24 -253.666 72 -366.999c10 -26 26.333 -59 49 -99zM857 -102.001l-35 16.001c22.667 40 39 73 49 99c48 113.333 72 235.666 72 366.999s-24 254 -72 368c-10 26 -26.333 59 -49 99l35 16
c22.667 -44.667 39.334 -79.667 50.001 -105c49.333 -120.667 74 -246.667 74 -378s-24.667 -257.333 -74 -378c-10.667 -26 -27.334 -60.667 -50.001 -104zM162 679l-0.000976562 75.001c16.667 -2.66699 38.334 -4 65.001 -4h30c31.333 0 55.333 1.33301 72 4
c-4.66699 -47.333 -7 -101 -7 -161v-490c0 -44.667 2.33301 -82.334 7 -113.001h-85c4.66699 32 7 69.667 7 113v581h-28c-24.667 0 -45 -1.66699 -61 -5z" />
    <glyph glyph-name="Japan1.8088" unicode="&#x2485;" 
d="M704 402c21.333 -4.66699 39.999 -14.3311 55.999 -28.998c43.333 -38 65 -95.333 65 -172c0 -68.667 -17 -121.667 -51 -159s-81.667 -56 -143 -56s-108.833 18.833 -142.5 56.5s-50.5 90.5 -50.5 158.5c0 51.333 11.167 95.5 33.5 132.5s51.833 59.833 88.5 68.5
c-31.333 11.333 -55.5 32.5 -72.5 63.5s-25.5 69.167 -25.5 114.5c0 61.333 15.167 109.666 45.5 144.999s71.833 53 124.5 53c52 0 93.167 -17.667 123.5 -53s45.5 -83.333 45.5 -144c0 -70.667 -19 -122.334 -57 -155.001c-13.333 -11.333 -26.666 -19.333 -39.999 -24z
M630.999 713.003c-31.333 0 -55.999 -12.5 -73.999 -37.5s-27 -58.833 -27 -101.5c0 -43.333 9.16699 -77.833 27.5 -103.5s42.833 -38.5 73.5 -38.5c32 0 57 13 75 39s27 62 27 108c0 40 -9.33301 72.333 -28 97s-43.334 37 -74.001 37zM632 366.003
c-37.333 0 -66.832 -14.168 -88.499 -42.501s-32.5 -67.166 -32.5 -116.499s10.5 -87.333 31.5 -114s50.833 -40 89.5 -40c38 0 67.5 13.167 88.5 39.5s31.5 63.833 31.5 112.5c0 49.333 -10.833 88.5 -32.5 117.5s-50.834 43.5 -87.501 43.5zM179.001 -85.998l-35 -16.001
c-22.667 43.333 -39.334 78 -50.001 104c-49.333 120.667 -74 246.667 -74 378c0 132.667 24.667 258.667 74 378c10.667 25.333 27.334 60.333 50.001 105l35 -16c-22.667 -40 -39 -73 -49 -99c-48 -113.333 -72 -236 -72 -368c0 -131.333 24 -253.666 72 -366.999
c10 -26 26.333 -59 49 -99zM857.001 -101.999l-35 16.001c22.667 40 39 73 49 99c48 113.333 72 235.666 72 366.999s-24 254 -72 368c-10 26 -26.333 59 -49 99l35 16c22.667 -44.667 39.334 -79.667 50.001 -105c49.333 -120.667 74 -246.667 74 -378
s-24.667 -257.333 -74 -378c-10.667 -26 -27.334 -60.667 -50.001 -104zM160.001 689.002l-0.000976562 75.001c16.667 -2.66699 38.334 -4 65.001 -4h30c31.333 0 55.333 1.33301 72 4c-4.66699 -47.333 -7 -101 -7 -161v-490c0 -44.667 2.33301 -82.334 7 -113.001h-85
c4.66699 32 7 69.667 7 113v581h-28c-24.667 0 -45 -1.66699 -61 -5z" />
    <glyph glyph-name="Japan1.8089" unicode="&#x2486;" 
d="M452 143l70.001 24.001c8.66699 -34.667 19 -60.667 31 -78c18.667 -24 41.667 -36 69 -36c50 0 86 35 108 105c15.333 48.667 25 121.667 29 219c-11.333 -28 -24.333 -49.667 -39 -65c-29.333 -31.333 -65 -47 -107 -47c-52.667 0 -94.334 22.667 -125.001 68
s-46 106.666 -46 183.999c0 79.333 17 142.5 51 189.5s79.667 70.5 137 70.5c67.333 0 117.333 -34.667 150 -104c31.333 -63.333 47 -156 47 -278c0 -132.667 -17.5 -233.667 -52.5 -303s-86.167 -104 -153.5 -104c-52 0 -93.667 20.333 -125 61
c-16 20.667 -30.667 52 -44 94zM625.001 331.001c35.333 0 64.665 17.668 87.998 53.001s35 80 35 134c0 56.667 -11.167 103 -33.5 139s-51.166 54 -86.499 54s-63.666 -17.5 -84.999 -52.5s-32 -81.5 -32 -139.5c0 -68.667 13 -119.334 39 -152.001
c17.333 -24 42.333 -36 75 -36zM179 -85.998l-35 -16.001c-22.667 43.333 -39.334 78 -50.001 104c-49.333 120.667 -74 246.667 -74 378c0 132.667 24.667 258.667 74 378c10.667 25.333 27.334 60.333 50.001 105l35 -16c-22.667 -40 -39 -73 -49 -99
c-48 -113.333 -72 -236 -72 -368c0 -131.333 24 -253.666 72 -366.999c10 -26 26.333 -59 49 -99zM857 -101.999l-35 16.001c22.667 40 39 73 49 99c48 113.333 72 235.666 72 366.999s-24 254 -72 368c-10 26 -26.333 59 -49 99l35 16
c22.667 -44.667 39.334 -79.667 50.001 -105c49.333 -120.667 74 -246.667 74 -378s-24.667 -257.333 -74 -378c-10.667 -26 -27.334 -60.667 -50.001 -104zM161 689.002l-0.000976562 75.001c16.667 -2.66699 38.334 -4 65.001 -4h30c31.333 0 55.333 1.33301 72 4
c-4.66699 -47.333 -7 -101 -7 -161v-490c0 -44.667 2.33301 -82.334 7 -113.001h-85c4.66699 32 7 69.667 7 113v581h-28c-24.667 0 -45 -1.66699 -61 -5z" />
    <glyph glyph-name="Japan1.8090" unicode="&#x2487;" 
d="M393 0l-169 0.000976562c-33.333 0 -60 -1 -80 -3c1.33301 6 3 21 5 45c5.33301 69.333 21.666 131.666 48.999 186.999c21.333 42 62 97 122 165c30.667 35.333 51.834 66.166 63.501 92.499s17.5 56.5 17.5 90.5c0 40.667 -7.5 72.667 -22.5 96s-35.833 35 -62.5 35
c-27.333 0 -49.333 -14.667 -66 -44c-14 -24 -24 -65 -30 -123l-71 11c12.667 76 29.667 130 51 162c28 40.667 66.333 61 115 61s86.667 -17.333 114 -52s41 -82.667 41 -144c0 -55.333 -11.667 -103.333 -35 -144c-14.667 -23.333 -44 -61 -88 -113
c-42.667 -48.667 -72 -89 -88 -121c-18.667 -39.333 -31.667 -84.666 -39 -135.999h174c37.333 0 64 2 80 6v-75c-20.667 2.66699 -47.667 4 -81 4zM689 -14.999c-114.667 0 -172 130.667 -172 392c0 264.667 57.333 397 172 397c118 0 177 -132 177 -396
c0 -262 -59 -393 -177 -393zM690 708.001c-35.333 0 -61.5 -27 -78.5 -81s-25.5 -138 -25.5 -252c0 -215.333 34.667 -323 104 -323c71.333 0 107 107 107 321c0 114.667 -8.66699 199.167 -26 253.5s-44.333 81.5 -81 81.5zM179 -85.999l-35 -16.001
c-22.667 43.333 -39.334 78 -50.001 104c-49.333 120.667 -74 246.667 -74 378c0 132.667 24.667 258.667 74 378c10.667 25.333 27.334 60.333 50.001 105l35 -16c-22.667 -40 -39 -73 -49 -99c-48 -113.333 -72 -236 -72 -368c0 -131.333 24 -253.666 72 -366.999
c10 -26 26.333 -59 49 -99zM857 -102l-35 16.001c22.667 40 39 73 49 99c48 113.333 72 235.666 72 366.999s-24 254 -72 368c-10 26 -26.333 59 -49 99l35 16c22.667 -44.667 39.334 -79.667 50.001 -105c49.333 -120.667 74 -246.667 74 -378s-24.667 -257.333 -74 -378
c-10.667 -26 -27.334 -60.667 -50.001 -104z" />
    <glyph glyph-name="Japan1.8062" unicode="&#x2488;" 
d="M864 99h99v-99h-99v99zM330 686v79c21.333 -3.33301 49 -5 83 -5h63c28 0 55.667 1.66699 83 5c-6 -61.333 -9 -116.666 -9 -165.999v-486c0 -42.667 2.66699 -80.334 8 -113.001h-95c5.33301 31.333 8 69 8 113v579h-54c-28.667 0 -57.667 -2 -87 -6z" />
    <glyph glyph-name="Japan1.8063" unicode="&#x2489;" 
d="M863 99h99v-99h-99v99zM641 0l-304 0.00195312c-48 0 -84.667 -2 -110 -6c8.66699 61.333 18.334 105.666 29.001 132.999c24 61.333 67.333 118.666 130 171.999c22 18.667 73 55.334 153 110.001c49.333 33.333 83.666 62.666 102.999 87.999s29 53.333 29 84
c0 38 -15 68.333 -45 91s-70.333 34 -121 34c-66.667 0 -115 -21.667 -145 -65c-17.333 -24.667 -29 -58.334 -35 -101.001l-84 15c13.333 63.333 34.333 111 63 143c45.333 51.333 112.333 77 201 77c76 0 136.333 -17.667 181 -53s67 -83 67 -143
c0 -69.333 -32.667 -129 -98 -179c-23.333 -17.333 -67.333 -47.666 -132 -90.999c-67.333 -46 -115 -87 -143 -123s-47 -74.333 -57 -115h319c46 0 86.667 2.33301 122 7v-84c-40 4 -81 6 -123 6z" />
    <glyph glyph-name="Japan1.8064" unicode="&#x248a;" 
d="M863 99h99v-99h-99v99zM213 164l83.998 20.002c8 -25.333 16.333 -44.5 25 -57.5s20.667 -25.167 36 -36.5c34 -24 77 -36 129 -36c58 0 104 14 138 42s51 65.667 51 113c0 49.333 -17.333 87.166 -52 113.499s-85.334 39.5 -152.001 39.5c-23.333 0 -50 -1.66699 -80 -5
v78c25.333 -3.33301 50 -5 74 -5c66.667 0 115.334 15.333 146.001 46c26.667 25.333 40 57.666 40 96.999c0 42.667 -14.167 76 -42.5 100s-67.833 36 -118.5 36c-61.333 0 -105.666 -17.667 -132.999 -53c-12 -15.333 -22.667 -39 -32 -71l-83 18
c14.667 44.667 32.667 78 54 100c44.667 48.667 111 73 199 73c72.667 0 130.334 -17.667 173.001 -53s64 -83 64 -143c0 -64.667 -23.333 -113.334 -70 -146.001c-22 -16 -53.333 -28 -94 -36c51.333 -5.33301 92.333 -19.666 123 -42.999c44.667 -34.667 67 -85 67 -151
c0 -67.333 -24.333 -120.666 -73 -159.999s-114.667 -59 -198 -59c-101.333 0 -176 27.333 -224 82c-18.667 21.333 -35.667 53.666 -51 96.999z" />
    <glyph glyph-name="Japan1.8065" unicode="&#x248b;" 
d="M864 99h99v-99h-99v99zM195 190v74.999c5.33301 6 27 31.667 65 77l253 316c28 34.667 53 68.667 75 102h75c-4 -47.333 -6 -103.666 -6 -168.999v-328h38c36 0 70.667 2.33301 104 7v-83c-34.667 4.66699 -69.667 7 -105 7h-37v-86c0 -39.333 2.66699 -75.333 8 -108
h-91c5.33301 31.333 8 67.333 8 108v86h-268c-50 0 -89.667 -1.33301 -119 -4zM583 261.999v254c0 50 2 95.333 6 136c-18.667 -26.667 -43.667 -60 -75 -100l-230 -290h299z" />
    <glyph glyph-name="Japan1.8066" unicode="&#x248c;" 
d="M864 99h99v-99h-99v99zM366 691l-20.999 -220.998c-1.33301 -12 -4 -27 -8 -45c48 46 106.333 69 175 69c73.333 0 133.333 -22.667 180 -68c44.667 -44 67 -103 67 -177c0 -80.667 -24.333 -144.834 -73 -192.501s-114.334 -71.5 -197.001 -71.5
c-79.333 0 -143 23 -191 69c-21.333 20 -42.333 51 -63 93l82 25c9.33301 -25.333 20 -45 32 -59c35.333 -39.333 82.666 -59 141.999 -59c56 0 101.167 17.5 135.5 52.5s51.5 81.167 51.5 138.5c0 55.333 -15.833 99.666 -47.5 132.999s-74.167 50 -127.5 50
c-51.333 0 -95 -14 -131 -42c-21.333 -16.667 -36.666 -36.667 -45.999 -60l-75 7c6.66699 32.667 11.667 67 15 103l22 226c2 29.333 3 49.333 3 60c0 12 -0.666992 26.333 -2 43c26 -3.33301 61.333 -5 106 -5h206c42.667 0 81.667 2.66699 117 8v-85
c-34 5.33301 -73 8 -117 8h-235z" />
    <glyph glyph-name="Japan1.8067" unicode="&#x248d;" 
d="M864 99h99v-99h-99v99zM751 620l-79.998 -26c-12 28.667 -23.667 49.667 -35 63c-30 33.333 -69.667 50 -119 50c-78.667 0 -136.334 -41.333 -173.001 -124c-13.333 -30 -22.833 -59.667 -28.5 -89s-10.167 -71.333 -13.5 -126c16 28 32.667 49.333 50 64
c45.333 40.667 101.666 61 168.999 61c77.333 0 138.5 -22.5 183.5 -67.5s67.5 -106.167 67.5 -183.5s-24 -139.5 -72 -186.5s-111.333 -70.5 -190 -70.5c-75.333 0 -135.666 21 -180.999 63c-67.333 62 -101 166.667 -101 314c0 133.333 25.333 234.333 76 303
c53.333 72.667 123.666 109 210.999 109c62 0 112.667 -14 152 -42c17.333 -12.667 32 -27 44 -43s25.333 -39 40 -69zM693.002 241c0 59.333 -15.832 104.998 -47.499 136.998s-76.834 48 -135.501 48c-54 0 -100 -19 -138 -57c-33.333 -33.333 -50 -75.666 -50 -126.999
c0 -54 18 -99 54 -135s81 -54 135 -54c32.667 0 63 7.33301 91 22s49.667 34.334 65 59.001c17.333 28 26 63.667 26 107z" />
    <glyph glyph-name="Japan1.8068" unicode="&#x248e;" 
d="M863 99h99v-99h-99v99zM760 765l-0.000976562 -73.001c-15.333 -12 -40 -44 -74 -96c-44.667 -69.333 -79.5 -129 -104.5 -179s-47.167 -105.667 -66.5 -167c-22 -70.667 -39.667 -154 -53 -250h-95c16 90.667 32.5 163.834 49.5 219.501s40.833 115.5 71.5 179.5
c24 50 48.833 95.667 74.5 137s60.834 92.333 105.501 153h-325c-40 0 -77.667 -2.33301 -113 -7v85c36.667 -4.66699 74.667 -7 114 -7h300c48 0 86.667 1.66699 116 5z" />
    <glyph glyph-name="Japan1.8069" unicode="&#x248f;" 
d="M863 99h99v-99h-99v99zM598 398c38 -5.33301 72.334 -19.668 103.001 -43.001c50 -38 75 -90.333 75 -157c0 -68.667 -24 -121.5 -72 -158.5s-116 -55.5 -204 -55.5c-91.333 0 -161.5 18.5 -210.5 55.5s-73.5 89.833 -73.5 158.5c0 72.667 29.667 127.667 89 165
c26.667 18 56.667 29.667 90 35c-44 8 -79.167 28.333 -105.5 61s-39.5 72 -39.5 118c0 61.333 22.167 109.833 66.5 145.5s104.166 53.5 179.499 53.5c76.667 0 137 -17.667 181 -53s66 -83.666 66 -144.999c0 -46.667 -13 -86.167 -39 -118.5s-61.333 -52.833 -106 -61.5z
M496.001 708.998c-50.667 0 -91.334 -12.5 -122.001 -37.5s-46 -58.167 -46 -99.5c0 -44.667 15 -79.667 45 -105s71.333 -38 124 -38s93.834 12.667 123.501 38s44.5 60.333 44.5 105c0 42 -15.333 75.333 -46 100s-71.667 37 -123 37zM496.001 359.998
c-61.333 0 -109.669 -14 -145.002 -42s-53 -66.333 -53 -115c0 -47.333 17.333 -84.333 52 -111s83 -40 145 -40c72.667 0 126.334 17.333 161.001 52c25.333 23.333 38 56.333 38 99c0 48.667 -17.667 87 -53 115s-83.666 42 -144.999 42z" />
    <glyph glyph-name="Japan1.8070" unicode="&#x2490;" 
d="M863 99h99v-99h-99v99zM233 140l81.998 26.001c10.667 -29.333 22.667 -51 36 -65c28 -31.333 70 -47 126 -47c71.333 0 125 30.667 161 92c20 35.333 34.333 78.333 43 129c4 22.667 7 61.334 9 116.001c-11.333 -22 -24.666 -40.333 -39.999 -55
c-49.333 -46.667 -110 -70 -182 -70c-76 0 -136 22 -180 66c-45.333 45.333 -68 105.333 -68 180c0 79.333 24.667 143 74 191s115 72 197 72c56 0 105.667 -15 149 -45s74.333 -71.333 93 -124c19.333 -51.333 29 -120.333 29 -207
c0 -144.667 -27.667 -251.334 -83 -320.001c-49.333 -62 -118.666 -93 -207.999 -93c-68.667 0 -124.667 18 -168 54c-24.667 21.333 -48 54.666 -70 99.999zM476.998 333.001c55.333 0 101.5 17.667 138.5 53s55.5 79.333 55.5 132c0 54 -17.833 99 -53.5 135
s-80.167 54 -133.5 54c-33.333 0 -64 -7.5 -92 -22.5s-50.333 -35.833 -67 -62.5c-17.333 -28 -26 -63 -26 -105c0 -56.667 16 -101.5 48 -134.5s75.333 -49.5 130 -49.5z" />
    <glyph glyph-name="Japan1.8112" unicode="&#x249c;" 
d="M179 -86l-35 -16.001c-22.667 43.333 -39.334 78 -50.001 104c-49.333 120.667 -74 246.667 -74 378c0 132.667 24.667 258.667 74 378c10.667 25.333 27.334 60.333 50.001 105l35 -16c-22.667 -40 -39 -73 -49 -99c-48 -113.333 -72 -236 -72 -368
c0 -131.333 24 -253.666 72 -366.999c10 -26 26.333 -59 49 -99zM857 -102.001l-35 16.001c22.667 40 39 73 49 99c48 113.333 72 235.666 72 366.999s-24 254 -72 368c-10 26 -26.333 59 -49 99l35 16c22.667 -44.667 39.334 -79.667 50.001 -105
c49.333 -120.667 74 -246.667 74 -378s-24.667 -257.333 -74 -378c-10.667 -26 -27.334 -60.667 -50.001 -104zM630 102l-0.000976562 70.998c-33.333 -30 -64 -50.333 -92 -61c-34.667 -13.333 -69.334 -20 -104.001 -20c-55.333 0 -98.666 13.5 -129.999 40.5
s-47 64.167 -47 111.5c0 40 12.167 74.167 36.5 102.5s59.833 48.833 106.5 61.5c51.333 14.667 128 23.334 230 26.001v58c0 68.667 -42 103 -126 103c-54.667 0 -96 -14.333 -124 -43c-12 -13.333 -22.333 -32.666 -31 -57.999l-78 17c15.333 40 34 69.667 56 89
c40.667 38 99.334 57 176.001 57c133.333 0 200 -54.667 200 -164v-281c0 -38 2.66699 -74.667 8 -110h-81zM629.999 309.998l0.000976562 65c-108 -2.66699 -181.667 -12.334 -221 -29.001c-50.667 -20.667 -76 -54.667 -76 -102c0 -27.333 9.66699 -49.166 29 -65.499
s45 -24.5 77 -24.5c28.667 0 57.667 6.33301 87 19s53.666 29.667 72.999 51c20.667 23.333 31 52 31 86z" />
    <glyph glyph-name="Japan1.8113" unicode="&#x249d;" 
d="M179 -86l-35 -16.001c-22.667 43.333 -39.334 78 -50.001 104c-49.333 120.667 -74 246.667 -74 378c0 132.667 24.667 258.667 74 378c10.667 25.333 27.334 60.333 50.001 105l35 -16c-22.667 -40 -39 -73 -49 -99c-48 -113.333 -72 -236 -72 -368
c0 -131.333 24 -253.666 72 -366.999c10 -26 26.333 -59 49 -99zM857 -102.001l-35 16.001c22.667 40 39 73 49 99c48 113.333 72 235.666 72 366.999s-24 254 -72 368c-10 26 -26.333 59 -49 99l35 16c22.667 -44.667 39.334 -79.667 50.001 -105
c49.333 -120.667 74 -246.667 74 -378s-24.667 -257.333 -74 -378c-10.667 -26 -27.334 -60.667 -50.001 -104zM336 8h-80.001c4.66699 35.333 7 73.666 7 114.999v532c0 38.667 -2.33301 76.334 -7 113.001h88c-4.66699 -34.667 -7 -72.667 -7 -114v-135
c0 -24 -1.33301 -47.667 -4 -71c46.667 73.333 115.334 110 206.001 110c76.667 0 136.834 -24.5 180.501 -73.5s65.5 -117.167 65.5 -204.5c0 -88 -22.167 -157 -66.5 -207s-105.5 -75 -183.5 -75c-60 0 -111.667 18 -155 54c-16.667 13.333 -32.334 30.666 -47.001 51.999
c2 -19.333 3 -32.666 3 -39.999v-56zM707.999 281c0 67.333 -15.333 119.667 -46 157s-73.667 56 -129 56c-58.667 0 -106 -19.667 -142 -59s-54 -91 -54 -155c0 -64.667 17.833 -117 53.5 -157s82.167 -60 139.5 -60c56 0 99.667 19.167 131 57.5s47 91.833 47 160.5z" />
    <glyph glyph-name="Japan1.8114" unicode="&#x249e;" 
d="M179 -86l-35 -16.001c-22.667 43.333 -39.334 78 -50.001 104c-49.333 120.667 -74 246.667 -74 378c0 132.667 24.667 258.667 74 378c10.667 25.333 27.334 60.333 50.001 105l35 -16c-22.667 -40 -39 -73 -49 -99c-48 -113.333 -72 -236 -72 -368
c0 -131.333 24 -253.666 72 -366.999c10 -26 26.333 -59 49 -99zM857 -102.001l-35 16.001c22.667 40 39 73 49 99c48 113.333 72 235.666 72 366.999s-24 254 -72 368c-10 26 -26.333 59 -49 99l35 16c22.667 -44.667 39.334 -79.667 50.001 -105
c49.333 -120.667 74 -246.667 74 -378s-24.667 -257.333 -74 -378c-10.667 -26 -27.334 -60.667 -50.001 -104zM727 499l-72.999 -23.001c-27.333 76.667 -77.666 115 -150.999 115c-55.333 0 -99.166 -19.833 -131.499 -59.5s-48.5 -93.167 -48.5 -160.5
c0 -66 16.667 -118.5 50 -157.5s78 -58.5 134 -58.5c59.333 0 103 21.333 131 64c7.33301 12 14.666 29 21.999 51l74 -20c-12.667 -32 -26.334 -57.667 -41.001 -77c-44 -56 -107 -84 -189 -84c-78.667 0 -141.334 25.333 -188.001 76s-70 118.667 -70 204
c0 86.667 23 156 69 208s107.333 78 184 78c84.667 0 149 -30.667 193 -92c12 -15.333 23.667 -36.666 35 -63.999z" />
    <glyph glyph-name="Japan1.8115" unicode="&#x249f;" 
d="M179 -86l-35 -16.001c-22.667 43.333 -39.334 78 -50.001 104c-49.333 120.667 -74 246.667 -74 378c0 132.667 24.667 258.667 74 378c10.667 25.333 27.334 60.333 50.001 105l35 -16c-22.667 -40 -39 -73 -49 -99c-48 -113.333 -72 -236 -72 -368
c0 -131.333 24 -253.666 72 -366.999c10 -26 26.333 -59 49 -99zM857 -102.001l-35 16.001c22.667 40 39 73 49 99c48 113.333 72 235.666 72 366.999s-24 254 -72 368c-10 26 -26.333 59 -49 99l35 16c22.667 -44.667 39.334 -79.667 50.001 -105
c49.333 -120.667 74 -246.667 74 -378s-24.667 -257.333 -74 -378c-10.667 -26 -27.334 -60.667 -50.001 -104zM655 8l0.000976562 49.001c0 15.333 1 31.666 3 48.999c-46.667 -72 -114 -108 -202 -108c-77.333 0 -138 25 -182 75s-66 118.333 -66 205
c0 85.333 22.167 153.333 66.5 204s104.166 76 179.499 76c92.667 0 160.667 -35.333 204 -106l-1 15c-1.33301 14 -2 31.667 -2 53v134c0 40.667 -2.33301 78.667 -7 114h88c-4.66699 -37.333 -7 -75 -7 -113v-532c0 -40 2.33301 -78.333 7 -115h-81zM462.001 493.001
c-54.667 0 -97.501 -18.832 -128.501 -56.499s-46.5 -89.834 -46.5 -156.501c0 -69.333 13.667 -121.333 41 -156c32 -40 76.667 -60 134 -60c58.667 0 105.334 19.667 140.001 59s52 92 52 158c0 70 -18.667 123 -56 159c-36.667 35.333 -82 53 -136 53z" />
    <glyph glyph-name="Japan1.8116" unicode="&#x24a0;" 
d="M179 -86l-35 -16.001c-22.667 43.333 -39.334 78 -50.001 104c-49.333 120.667 -74 246.667 -74 378c0 132.667 24.667 258.667 74 378c10.667 25.333 27.334 60.333 50.001 105l35 -16c-22.667 -40 -39 -73 -49 -99c-48 -113.333 -72 -236 -72 -368
c0 -131.333 24 -253.666 72 -366.999c10 -26 26.333 -59 49 -99zM857 -102.001l-35 16.001c22.667 40 39 73 49 99c48 113.333 72 235.666 72 366.999s-24 254 -72 368c-10 26 -26.333 59 -49 99l35 16c22.667 -44.667 39.334 -79.667 50.001 -105
c49.333 -120.667 74 -246.667 74 -378s-24.667 -257.333 -74 -378c-10.667 -26 -27.334 -60.667 -50.001 -104zM751 360l-421.002 0.000976562c2.66699 -60.667 16.334 -107.334 41.001 -140.001c32.667 -45.333 79.334 -68 140.001 -68c82.667 0 137.667 38.667 165 116
l71 -27c-16.667 -35.333 -35 -63 -55 -83c-48 -46.667 -108.667 -70 -182 -70c-78 0 -140 25.5 -186 76.5s-69 119.833 -69 206.5c0 86 22.5 154.833 67.5 206.5s105.167 77.5 180.5 77.5c64.667 0 118.667 -19.5 162 -58.5s70 -92.167 80 -159.5
c3.33301 -33.333 5.33301 -59 6 -77zM332.998 423.001h339c-5.33301 52 -23.333 93.333 -54 124c-31.333 30 -70.333 45 -117 45c-63.333 0 -111 -29.333 -143 -88c-12 -22.667 -20.333 -49.667 -25 -81z" />
    <glyph glyph-name="Japan1.8117" unicode="&#x24a1;" 
d="M179 -86l-35 -16.001c-22.667 43.333 -39.334 78 -50.001 104c-49.333 120.667 -74 246.667 -74 378c0 132.667 24.667 258.667 74 378c10.667 25.333 27.334 60.333 50.001 105l35 -16c-22.667 -40 -39 -73 -49 -99c-48 -113.333 -72 -236 -72 -368
c0 -131.333 24 -253.666 72 -366.999c10 -26 26.333 -59 49 -99zM857 -102.001l-35 16.001c22.667 40 39 73 49 99c48 113.333 72 235.666 72 366.999s-24 254 -72 368c-10 26 -26.333 59 -49 99l35 16c22.667 -44.667 39.334 -79.667 50.001 -105
c49.333 -120.667 74 -246.667 74 -378s-24.667 -257.333 -74 -378c-10.667 -26 -27.334 -60.667 -50.001 -104zM437 470h-41c-29.333 0 -59.666 -2 -90.999 -6v76c27.333 -4 57.666 -6 90.999 -6h41v59c0 55.333 10.333 96 31 122c25.333 32.667 67.333 49 126 49
c36.667 0 72 -6.66699 106 -20l-21 -67c-26 15.333 -53.667 23 -83 23c-32 0 -54.667 -9 -68 -27c-10 -14.667 -15 -42.667 -15 -84v-55h50c41.333 0 76.666 2 105.999 6v-76c-27.333 4 -62.666 6 -105.999 6h-50v-363c0 -40.667 2.33301 -78.334 7 -113.001h-90
c4.66699 34.667 7 72.334 7 113.001v363z" />
    <glyph glyph-name="Japan1.8118" unicode="&#x24a2;" 
d="M179 -86l-35 -16.001c-22.667 43.333 -39.334 78 -50.001 104c-49.333 120.667 -74 246.667 -74 378c0 132.667 24.667 258.667 74 378c10.667 25.333 27.334 60.333 50.001 105l35 -16c-22.667 -40 -39 -73 -49 -99c-48 -113.333 -72 -236 -72 -368
c0 -131.333 24 -253.666 72 -366.999c10 -26 26.333 -59 49 -99zM857 -102.001l-35 16.001c22.667 40 39 73 49 99c48 113.333 72 235.666 72 366.999s-24 254 -72 368c-10 26 -26.333 59 -49 99l35 16c22.667 -44.667 39.334 -79.667 50.001 -105
c49.333 -120.667 74 -246.667 74 -378s-24.667 -257.333 -74 -378c-10.667 -26 -27.334 -60.667 -50.001 -104zM249 73l64.001 44c12 -16 22.667 -27.667 32 -35c36 -31.333 80.667 -47 134 -47c89.333 0 147.333 36.667 174 110c9.33301 24.667 15.666 74 18.999 148
c-14 -24 -28.667 -42.333 -44 -55c-38.667 -34.667 -90.334 -52 -155.001 -52c-75.333 0 -135.333 24.5 -180 73.5s-67 115.167 -67 198.5c0 85.333 22.833 153.166 68.5 203.499s107.167 75.5 184.5 75.5c87.333 0 151.666 -35 192.999 -105
c-1.33301 22.667 -2 35.334 -2 38.001v57h79c-4.66699 -36.667 -7 -74 -7 -112v-359c0 -94 -19 -163.333 -57 -208c-43.333 -50.667 -113 -76 -209 -76c-49.333 0 -91.166 7.66699 -125.499 23s-68.166 41.333 -101.499 78zM304.001 459
c0 -64.667 15.5 -115.832 46.5 -153.499s73.167 -56.5 126.5 -56.5c56.667 0 102.5 20 137.5 60s52.5 92.667 52.5 158c0 63.333 -16.667 113.666 -50 150.999s-78 56 -134 56c-55.333 0 -99 -19.167 -131 -57.5s-48 -90.833 -48 -157.5z" />
    <glyph glyph-name="Japan1.8119" unicode="&#x24a3;" 
d="M179 -86l-35 -16.001c-22.667 43.333 -39.334 78 -50.001 104c-49.333 120.667 -74 246.667 -74 378c0 132.667 24.667 258.667 74 378c10.667 25.333 27.334 60.333 50.001 105l35 -16c-22.667 -40 -39 -73 -49 -99c-48 -113.333 -72 -236 -72 -368
c0 -131.333 24 -253.666 72 -366.999c10 -26 26.333 -59 49 -99zM857 -102.001l-35 16.001c22.667 40 39 73 49 99c48 113.333 72 235.666 72 366.999s-24 254 -72 368c-10 26 -26.333 59 -49 99l35 16c22.667 -44.667 39.334 -79.667 50.001 -105
c49.333 -120.667 74 -246.667 74 -378s-24.667 -257.333 -74 -378c-10.667 -26 -27.334 -60.667 -50.001 -104zM362 8l-88.998 0.000976562c4.66699 33.333 7 71 7 113v534c0 40.667 -2.33301 78.334 -7 113.001h89c-5.33301 -32.667 -8 -70.334 -8 -113.001v-170
c0 -16 -1 -32.667 -3 -50c15.333 27.333 33.666 50 54.999 68c42 36 91.667 54 149 54c58.667 0 104.5 -16.333 137.5 -49s49.5 -78.334 49.5 -137.001v-251c0 -40 2.33301 -77.333 7 -112h-90c4.66699 30.667 7 68.334 7 113.001v236c0 43.333 -10.333 76.5 -31 99.5
s-50.667 34.5 -90 34.5c-54.667 0 -101.334 -24.333 -140.001 -73c-25.333 -31.333 -42 -66.333 -50 -105v-192c0 -38.667 2.33301 -76.334 7 -113.001z" />
    <glyph glyph-name="Japan1.8120" unicode="&#x24a4;" 
d="M179 -86l-35 -16.001c-22.667 43.333 -39.334 78 -50.001 104c-49.333 120.667 -74 246.667 -74 378c0 132.667 24.667 258.667 74 378c10.667 25.333 27.334 60.333 50.001 105l35 -16c-22.667 -40 -39 -73 -49 -99c-48 -113.333 -72 -236 -72 -368
c0 -131.333 24 -253.666 72 -366.999c10 -26 26.333 -59 49 -99zM857 -102.001l-35 16.001c22.667 40 39 73 49 99c48 113.333 72 235.666 72 366.999s-24 254 -72 368c-10 26 -26.333 59 -49 99l35 16c22.667 -44.667 39.334 -79.667 50.001 -105
c49.333 -120.667 74 -246.667 74 -378s-24.667 -257.333 -74 -378c-10.667 -26 -27.334 -60.667 -50.001 -104zM450 759h97v-89h-97v89zM452 538h90c-4.66699 -32.667 -7 -70.334 -7 -113.001v-313c0 -38 2.33301 -75.333 7 -112h-90c4.66699 40 7 77.333 7 112v313
c0 42.667 -2.33301 80.334 -7 113.001z" />
    <glyph glyph-name="Japan1.8121" unicode="&#x24a5;" 
d="M179 -86l-35 -16.001c-22.667 43.333 -39.334 78 -50.001 104c-49.333 120.667 -74 246.667 -74 378c0 132.667 24.667 258.667 74 378c10.667 25.333 27.334 60.333 50.001 105l35 -16c-22.667 -40 -39 -73 -49 -99c-48 -113.333 -72 -236 -72 -368
c0 -131.333 24 -253.666 72 -366.999c10 -26 26.333 -59 49 -99zM857 -102.001l-35 16.001c22.667 40 39 73 49 99c48 113.333 72 235.666 72 366.999s-24 254 -72 368c-10 26 -26.333 59 -49 99l35 16c22.667 -44.667 39.334 -79.667 50.001 -105
c49.333 -120.667 74 -246.667 74 -378s-24.667 -257.333 -74 -378c-10.667 -26 -27.334 -60.667 -50.001 -104zM481 833h97v-90h-97v90zM485 612h90.001c-4.66699 -32.667 -7 -70.334 -7 -113.001v-420c0 -54 -12.667 -93.333 -38 -118
c-25.333 -22.667 -62.333 -34 -111 -34c-32.667 0 -60 5.5 -82 16.5s-44.333 29.833 -67 56.5l69 45c13.333 -19.333 26.166 -32.833 38.499 -40.5s27.5 -11.5 45.5 -11.5c24.667 0 42.667 7 54 21c10 13.333 15 37.333 15 72v413c0 42.667 -2.33301 80.334 -7 113.001z" />
    <glyph glyph-name="Japan1.8122" unicode="&#x24a6;" 
d="M179 -86l-35 -16.001c-22.667 43.333 -39.334 78 -50.001 104c-49.333 120.667 -74 246.667 -74 378c0 132.667 24.667 258.667 74 378c10.667 25.333 27.334 60.333 50.001 105l35 -16c-22.667 -40 -39 -73 -49 -99c-48 -113.333 -72 -236 -72 -368
c0 -131.333 24 -253.666 72 -366.999c10 -26 26.333 -59 49 -99zM857 -102.001l-35 16.001c22.667 40 39 73 49 99c48 113.333 72 235.666 72 366.999s-24 254 -72 368c-10 26 -26.333 59 -49 99l35 16c22.667 -44.667 39.334 -79.667 50.001 -105
c49.333 -120.667 74 -246.667 74 -378s-24.667 -257.333 -74 -378c-10.667 -26 -27.334 -60.667 -50.001 -104zM291 768h88.998c-4.66699 -33.333 -7 -70.666 -7 -111.999v-363l181 176c33.333 32 57 58.333 71 79h119l-41 -37
c-3.33301 -3.33301 -9.16602 -8.83301 -17.499 -16.5s-14.5 -13.5 -18.5 -17.5c-2.66699 -2.66699 -5.16699 -5 -7.5 -7s-4.16602 -4 -5.49902 -6l-3 -3l-139 -130l169 -218c42.667 -54.667 71.667 -89.667 87 -105h-114c-6 12.667 -12 23.5 -18 32.5s-21 29.833 -45 62.5
l-133 183l-85 -82v-84c0 -42 2.33301 -79.333 7 -112h-89c4.66699 33.333 7 71 7 113v535c0 41.333 -2.33301 78.666 -7 111.999z" />
    <glyph glyph-name="Japan1.8123" unicode="&#x24a7;" 
d="M179 -86l-35 -16.001c-22.667 43.333 -39.334 78 -50.001 104c-49.333 120.667 -74 246.667 -74 378c0 132.667 24.667 258.667 74 378c10.667 25.333 27.334 60.333 50.001 105l35 -16c-22.667 -40 -39 -73 -49 -99c-48 -113.333 -72 -236 -72 -368
c0 -131.333 24 -253.666 72 -366.999c10 -26 26.333 -59 49 -99zM857 -102.001l-35 16.001c22.667 40 39 73 49 99c48 113.333 72 235.666 72 366.999s-24 254 -72 368c-10 26 -26.333 59 -49 99l35 16c22.667 -44.667 39.334 -79.667 50.001 -105
c49.333 -120.667 74 -246.667 74 -378s-24.667 -257.333 -74 -378c-10.667 -26 -27.334 -60.667 -50.001 -104zM451 759l90 0.000976562c-4.66699 -33.333 -7 -71 -7 -113v-535c0 -36.667 2.33301 -73.667 7 -111h-90c4.66699 33.333 7 70.333 7 111v536
c0 41.333 -2.33301 78.666 -7 111.999z" />
    <glyph glyph-name="Japan1.8124" unicode="&#x24a8;" 
d="M255 600l-2.00098 -28.0039c-1.33301 -6.66699 -2.33301 -12 -3 -16c12 22.667 23.667 39.334 35 50.001c30.667 30.667 67.334 46 110.001 46c47.333 0 83 -16.667 107 -50c10 -13.333 18 -31.666 24 -54.999c14 25.333 28.333 45 43 59c32.667 30.667 70 46 112 46
c99.333 0 149 -63 149 -189v-249c0 -46.667 2 -84 6 -112h-84c4 28 6 65.667 6 113v235c0 55.333 -7.66699 92.333 -23 111c-14 18 -36.333 27 -67 27c-34 0 -63.5 -17.5 -88.5 -52.5s-37.5 -76.5 -37.5 -124.5v-197c0 -40.667 2 -78 6 -112h-84
c4 28.667 6 66.334 6 113.001v235c0 92 -29.333 138 -88 138c-41.333 0 -74 -22 -98 -66c-19.333 -35.333 -29 -72.333 -29 -111v-196c0 -37.333 2 -75 6 -113h-84c4 36 6 73.667 6 113v313c0 46.667 -2 84.334 -6 113.001h78v-41zM178.999 -86.0039l-35 -16.001
c-22.667 43.333 -39.334 78 -50.001 104c-49.333 120.667 -74 246.667 -74 378c0 132.667 24.667 258.667 74 378c10.667 25.333 27.334 60.333 50.001 105l35 -16c-22.667 -40 -39 -73 -49 -99c-48 -113.333 -72 -236 -72 -368c0 -131.333 24 -253.666 72 -366.999
c10 -26 26.333 -59 49 -99zM856.999 -102.005l-35 16.001c22.667 40 39 73 49 99c48 113.333 72 235.666 72 366.999s-24 254 -72 368c-10 26 -26.333 59 -49 99l35 16c22.667 -44.667 39.334 -79.667 50.001 -105c49.333 -120.667 74 -246.667 74 -378
s-24.667 -257.333 -74 -378c-10.667 -26 -27.334 -60.667 -50.001 -104z" />
    <glyph glyph-name="Japan1.8125" unicode="&#x24a9;" 
d="M179 -86l-35 -16.001c-22.667 43.333 -39.334 78 -50.001 104c-49.333 120.667 -74 246.667 -74 378c0 132.667 24.667 258.667 74 378c10.667 25.333 27.334 60.333 50.001 105l35 -16c-22.667 -40 -39 -73 -49 -99c-48 -113.333 -72 -236 -72 -368
c0 -131.333 24 -253.666 72 -366.999c10 -26 26.333 -59 49 -99zM857 -102.001l-35 16.001c22.667 40 39 73 49 99c48 113.333 72 235.666 72 366.999s-24 254 -72 368c-10 26 -26.333 59 -49 99l35 16c22.667 -44.667 39.334 -79.667 50.001 -105
c49.333 -120.667 74 -246.667 74 -378s-24.667 -257.333 -74 -378c-10.667 -26 -27.334 -60.667 -50.001 -104zM357 102l-90 -0.00195312c5.33301 34 8 71.667 8 113v313c0 40 -2.66699 77.667 -8 113h83v-68c0 -13.333 -1 -27.666 -3 -42.999
c46 80.667 113.333 121 202 121c74 0 127.333 -25 160 -75c18.667 -28.667 28 -67 28 -115v-247c0 -44 2.33301 -81.333 7 -112h-90c4.66699 36.667 7 74.334 7 113.001v233c0 44.667 -10.5 78.834 -31.5 102.501s-51.167 35.5 -90.5 35.5
c-54.667 0 -102.334 -26.333 -143.001 -79c-23.333 -30.667 -38.666 -63.667 -45.999 -99v-193c0 -38.667 2.33301 -76.334 7 -113.001z" />
    <glyph glyph-name="Japan1.8126" unicode="&#x24aa;" 
d="M179 -86l-35 -16.001c-22.667 43.333 -39.334 78 -50.001 104c-49.333 120.667 -74 246.667 -74 378c0 132.667 24.667 258.667 74 378c10.667 25.333 27.334 60.333 50.001 105l35 -16c-22.667 -40 -39 -73 -49 -99c-48 -113.333 -72 -236 -72 -368
c0 -131.333 24 -253.666 72 -366.999c10 -26 26.333 -59 49 -99zM857 -102.001l-35 16.001c22.667 40 39 73 49 99c48 113.333 72 235.666 72 366.999s-24 254 -72 368c-10 26 -26.333 59 -49 99l35 16c22.667 -44.667 39.334 -79.667 50.001 -105
c49.333 -120.667 74 -246.667 74 -378s-24.667 -257.333 -74 -378c-10.667 -26 -27.334 -60.667 -50.001 -104zM500 89c-82 0 -147.167 25.332 -195.5 75.999s-72.5 119.334 -72.5 206.001s24 155.5 72 206.5s112.667 76.5 194 76.5s146 -25.5 194 -76.5
s72 -119.5 72 -205.5c0 -85.333 -24 -153.833 -72 -205.5s-112 -77.5 -192 -77.5zM500 590.999c-59.333 0 -106.002 -19.499 -140.002 -58.499s-51 -92.167 -51 -159.5c0 -68 16.833 -121.5 50.5 -160.5s79.834 -58.5 138.501 -58.5s104.834 19.5 138.501 58.5
s50.5 92.167 50.5 159.5s-16.833 120.666 -50.5 159.999s-79.167 59 -136.5 59z" />
    <glyph glyph-name="Japan1.8127" unicode="&#x24ab;" 
d="M179 -86l-35 -16.001c-22.667 43.333 -39.334 78 -50.001 104c-49.333 120.667 -74 246.667 -74 378c0 132.667 24.667 258.667 74 378c10.667 25.333 27.334 60.333 50.001 105l35 -16c-22.667 -40 -39 -73 -49 -99c-48 -113.333 -72 -236 -72 -368
c0 -131.333 24 -253.666 72 -366.999c10 -26 26.333 -59 49 -99zM857 -102.001l-35 16.001c22.667 40 39 73 49 99c48 113.333 72 235.666 72 366.999s-24 254 -72 368c-10 26 -26.333 59 -49 99l35 16c22.667 -44.667 39.334 -79.667 50.001 -105
c49.333 -120.667 74 -246.667 74 -378s-24.667 -257.333 -74 -378c-10.667 -26 -27.334 -60.667 -50.001 -104zM347 -22l-87.999 0.00292969c4.66699 36.667 7 74 7 112v522c0 41.333 -2.33301 79.666 -7 114.999h80v-57c0 -10.667 -1 -24.334 -3 -41.001
c45.333 72 113.333 108 204 108c77.333 0 138 -24.833 182 -74.5s66 -117.834 66 -204.501c0 -85.333 -22.333 -153.166 -67 -203.499s-104.334 -75.5 -179.001 -75.5c-90 0 -158.667 35.333 -206 106c2.66699 -24.667 4 -48 4 -70v-124
c0 -40.667 2.33301 -78.334 7 -113.001zM535.001 243.003c54.667 0 97.5 19 128.5 57s46.5 90.333 46.5 157c0 68.667 -15.333 121.667 -46 159s-74 56 -130 56c-57.333 0 -103.833 -19.667 -139.5 -59s-53.5 -91.333 -53.5 -156c0 -69.333 19 -123 57 -161
c37.333 -35.333 83 -53 137 -53z" />
    <glyph glyph-name="Japan1.8128" unicode="&#x24ac;" 
d="M179 -86l-35 -16.001c-22.667 43.333 -39.334 78 -50.001 104c-49.333 120.667 -74 246.667 -74 378c0 132.667 24.667 258.667 74 378c10.667 25.333 27.334 60.333 50.001 105l35 -16c-22.667 -40 -39 -73 -49 -99c-48 -113.333 -72 -236 -72 -368
c0 -131.333 24 -253.666 72 -366.999c10 -26 26.333 -59 49 -99zM857 -102.001l-35 16.001c22.667 40 39 73 49 99c48 113.333 72 235.666 72 366.999s-24 254 -72 368c-10 26 -26.333 59 -49 99l35 16c22.667 -44.667 39.334 -79.667 50.001 -105
c49.333 -120.667 74 -246.667 74 -378s-24.667 -257.333 -74 -378c-10.667 -26 -27.334 -60.667 -50.001 -104zM739 -22h-88c4.66699 35.333 7 73 7 113v124c0 23.333 1.33301 46.666 4 69.999c-47.333 -70.667 -115 -106 -203 -106
c-77.333 0 -138.166 24.833 -182.499 74.5s-66.5 117.5 -66.5 203.5c0 85.333 22.333 153.333 67 204s104.667 76 180 76c91.333 0 159.666 -36 204.999 -108c-2 16.667 -3 30.334 -3 41.001v57h80c-4.66699 -34.667 -7 -73 -7 -115v-522c0 -40 2.33301 -77.333 7 -112z
M288 457c0 -66.667 15.5 -118.832 46.5 -156.499s73.833 -56.5 128.5 -56.5c58.667 0 105.667 19.667 141 59s53 91.666 53 156.999c0 64 -17.333 115.333 -52 154s-80.667 58 -138 58c-56 0 -99.833 -19 -131.5 -57s-47.5 -90.667 -47.5 -158z" />
    <glyph glyph-name="Japan1.8129" unicode="&#x24ad;" 
d="M179 -86l-35 -16.001c-22.667 43.333 -39.334 78 -50.001 104c-49.333 120.667 -74 246.667 -74 378c0 132.667 24.667 258.667 74 378c10.667 25.333 27.334 60.333 50.001 105l35 -16c-22.667 -40 -39 -73 -49 -99c-48 -113.333 -72 -236 -72 -368
c0 -131.333 24 -253.666 72 -366.999c10 -26 26.333 -59 49 -99zM857 -102.001l-35 16.001c22.667 40 39 73 49 99c48 113.333 72 235.666 72 366.999s-24 254 -72 368c-10 26 -26.333 59 -49 99l35 16c22.667 -44.667 39.334 -79.667 50.001 -105
c49.333 -120.667 74 -246.667 74 -378s-24.667 -257.333 -74 -378c-10.667 -26 -27.334 -60.667 -50.001 -104zM733 641l-22.001 -77.001c-32 10 -59 15 -81 15c-51.333 0 -92.333 -20.333 -123 -61c-21.333 -27.333 -33.666 -60.666 -36.999 -99.999v-204
c0 -38 2.33301 -75.333 7 -112h-90c4.66699 42.667 7 80.334 7 113.001v313c0 42 -2.33301 79.667 -7 113h83v-57c0 -15.333 -0.333008 -25.333 -1 -30c16.667 27.333 35 47.666 55 60.999c35.333 23.333 75.333 35 120 35c23.333 0 53 -3 89 -9z" />
    </font>
</defs>
</svg>
