<svg xmlns="http://www.w3.org/2000/svg" width="899" height="32" viewBox="0 0 899 32"><title>Shape 6</title><defs><clipPath id="a"><path d="M510 1301v-1h899v1z" fill="#fff"/></clipPath><clipPath id="b"><path d="M960 1284c8.837 0 16 7.16 16 16s-7.163 16-16 16-16-7.16-16-16 7.163-16 16-16z" fill="#fff"/></clipPath></defs><path d="M0 17v-1h899v1z" fill="#70bdea"/><path d="M0 17v-1h899v1z" fill="#70bdea"/><path d="M0 17v-1h899v1z" fill="#bdbdbd"/><path d="M510 1301v-1h899v1z" fill="none" stroke-dasharray="0" stroke="#bbb" stroke-miterlimit="50" stroke-width="2" clip-path="url(&amp;quot;#a&amp;quot;)" transform="translate(-510 -1284)"/><path d="M450 0c8.837 0 16 7.16 16 16s-7.163 16-16 16-16-7.16-16-16 7.163-16 16-16z" fill="#fdfdfd"/><path d="M960 1284c8.837 0 16 7.16 16 16s-7.163 16-16 16-16-7.16-16-16 7.163-16 16-16z" fill="none" stroke-dasharray="0" stroke="#bbb" stroke-miterlimit="50" stroke-width="2" clip-path="url(&amp;quot;#b&amp;quot;)" transform="translate(-510 -1284)"/><path d="M440 13l10 10 10-10z" fill="#70bdea"/><path d="M440 13l10 10 10-10z" fill="#bdbdbd"/></svg>