<svg id="Layer_1" xmlns="http://www.w3.org/2000/svg" viewBox="0 0 267.4 197.3"><style>.st0{fill-rule:evenodd;clip-rule:evenodd;fill:#fff}</style><path class="st0" d="M.6 193.9v-34h2.3l14.7 16.8 14.8-16.8h2.3v34h-6.8v-19.7l-10.2 11.3-10.3-11.3v19.7H.6zm70.6 0c-4.8 0-8.9-1.6-12.1-4.9-3.3-3.3-4.9-7.3-4.9-12.1s1.6-8.9 4.9-12.1c3.2-3.3 7.3-4.9 12.1-4.9s8.9 1.6 12.1 4.9c3.3 3.3 4.9 7.3 4.9 12.1s-1.6 8.9-4.9 12.1c-3.2 3.3-7.3 4.9-12.1 4.9zm0-6.3c3 0 5.5-1 7.3-3.1 1.9-2 2.8-4.6 2.8-7.6s-.9-5.6-2.8-7.6-4.4-3.1-7.4-3.1-5.5 1-7.3 3.1c-1.9 2-2.8 4.6-2.8 7.6s.9 5.6 2.8 7.6c1.9 2.1 4.4 3.1 7.4 3.1zm34.8-27.7v6.4h11.3V194h6.8v-27.7h11.3v-6.4H106zm49 0h6.8v34H155v-34zm26 0l13.6 34h6.8l13.6-34h-7.3l-9.8 24.9-9.7-24.9H181zm69.4 34c-4.8 0-8.9-1.6-12.1-4.9-3.3-3.3-4.9-7.3-4.9-12.1s1.6-8.9 4.9-12.1c3.2-3.3 7.3-4.9 12.1-4.9s8.9 1.6 12.1 4.9c3.3 3.3 4.9 7.3 4.9 12.1s-1.6 8.9-4.9 12.1c-3.2 3.3-7.3 4.9-12.1 4.9zm0-6.3c3 0 5.5-1 7.3-3.1 1.9-2 2.8-4.6 2.8-7.6s-.9-5.6-2.8-7.6-4.4-3.1-7.4-3.1-5.5 1-7.3 3.1c-1.9 2-2.8 4.6-2.8 7.6s.9 5.6 2.8 7.6c1.9 2.1 4.4 3.1 7.4 3.1zM107.3 22.3l26 21.2 24.8-21.8L132.2.6l-24.9 21.7zM7.6 110.9L33.3 132l50.3-41.2 16.4 13.4L125.6 83 83.7 48.6 7.6 110.9zm100.6-.1l25.7-21 50.3-41.2 76.1 62.3-25.6 21.1-50.3-41.2L134 132l-25.8-21.2z"/></svg>