<svg id="Layer_1" xmlns="http://www.w3.org/2000/svg" viewBox="0 0 612 101.8"><style>.st0{fill-rule:evenodd;clip-rule:evenodd;fill:#333}</style><path class="st0" d="M254.6 101.8c-8.8 0-16.2-3-22.1-8.9-5.9-5.9-8.9-13.3-8.9-22.1s3-16.2 8.9-22.1c5.9-5.9 13.3-8.9 22.1-8.9s16.2 3 22.1 8.9c5.9 5.9 8.9 13.3 8.9 22.1s-3 16.2-8.9 22.1c-5.9 6-13.3 8.9-22.1 8.9zm0-11.5c5.5 0 9.9-1.9 13.4-5.6 3.4-3.7 5.2-8.3 5.2-13.8s-1.7-10.1-5.2-13.8c-3.4-3.7-7.9-5.6-13.5-5.6-5.5 0-9.9 1.9-13.4 5.6-3.4 3.7-5.2 8.3-5.2 13.8s1.7 10.1 5.2 13.8c3.5 3.7 8 5.6 13.5 5.6zM318 39.9v11.6h20.7v50.4H351V51.4h20.7V39.9H318zm89.2-.1h12.4v62h-12.4v-62zm47.4.1l24.8 62h12.4l24.8-62h-13.2l-17.9 45.4-17.6-45.4h-13.3zM581 101.8c-8.8 0-16.2-3-22.1-8.9-5.9-5.9-8.9-13.2-8.9-22s3-16.2 8.9-22.1c5.9-5.9 13.3-8.9 22.1-8.9s16.2 3 22.1 8.9c5.9 5.9 8.9 13.3 8.9 22.1s-3 16.2-8.9 22.1c-5.9 5.9-13.3 8.8-22.1 8.8zm.1-11.5c5.5 0 9.9-1.9 13.4-5.6 3.4-3.7 5.2-8.3 5.2-13.8s-1.7-10.1-5.2-13.8c-3.4-3.7-7.9-5.6-13.5-5.6-5.5 0-9.9 1.9-13.4 5.6-3.4 3.7-5.2 8.3-5.2 13.8s1.7 10.1 5.2 13.8c3.4 3.7 7.9 5.6 13.5 5.6zM77.3 16.8l20.1 16.5 19.3-16.9L96.6 0 77.3 16.8zM0 85.5l19.9 16.3 39-31.9 12.7 10.4 19.8-16.5L59 37.3 0 85.5zm78 0l20-16.3 39-31.9 59 48.3-19.9 16.3-39-31.9-39 31.9L78 85.5z"/></svg>