<?xml version="1.0" encoding="utf-8"?>
<!-- Generator: Adobe Illustrator 20.0.0, SVG Export Plug-In . SVG Version: 6.00 Build 0)  -->
<svg version="1.1" id="Layer_1" xmlns="http://www.w3.org/2000/svg" xmlns:xlink="http://www.w3.org/1999/xlink" x="0px" y="0px"
	 viewBox="0 0 612 101.7" style="enable-background:new 0 0 612 101.7;" xml:space="preserve">
<style type="text/css">
	.st0{fill-rule:evenodd;clip-rule:evenodd;fill:#FFFFFF;}
</style>
<g>
	<path class="st0" d="M255.2,101.7c-8.8,0-16.2-3-22.1-8.9c-5.9-5.9-8.9-13.3-8.9-22.1c0-8.8,3-16.2,8.9-22.1
		c5.9-5.9,13.3-8.9,22.1-8.9c8.8,0,16.2,3,22.1,8.9c5.9,5.9,8.9,13.3,8.9,22.1c0,8.8-3,16.2-8.9,22.1
		C271.3,98.7,264,101.7,255.2,101.7L255.2,101.7z M255.2,90.1c5.5,0,9.9-1.9,13.4-5.6c3.4-3.7,5.2-8.3,5.2-13.8
		c0-5.5-1.7-10.1-5.2-13.8c-3.4-3.7-7.9-5.6-13.4-5.6c-5.5,0-9.9,1.9-13.4,5.6c-3.4,3.7-5.2,8.3-5.2,13.8c0,5.5,1.7,10.1,5.2,13.8
		C245.2,88.3,249.7,90.1,255.2,90.1L255.2,90.1z M318.5,39.8v11.6h20.6v50.3h12.4V51.4h20.6V39.8H318.5L318.5,39.8z M407.6,39.8
		h12.3v61.9h-12.3V39.8L407.6,39.8z M454.8,39.8l24.8,61.9H492l24.7-61.9h-13.2l-17.9,45.3L468,39.8H454.8L454.8,39.8z M581.1,101.7
		c-8.8,0-16.2-3-22.1-8.9c-5.9-5.9-8.9-13.3-8.9-22.1c0-8.8,3-16.2,8.9-22.1c5.9-5.9,13.3-8.9,22.1-8.9c8.8,0,16.2,3,22.1,8.9
		C609,54.6,612,62,612,70.8c0,8.8-3,16.2-8.9,22.1C597.2,98.7,589.9,101.7,581.1,101.7L581.1,101.7z M581.1,90.1
		c5.5,0,9.9-1.9,13.4-5.6c3.4-3.7,5.2-8.3,5.2-13.8c0-5.5-1.7-10.1-5.2-13.8c-3.4-3.7-7.9-5.6-13.4-5.6c-5.5,0-9.9,1.9-13.4,5.6
		c-3.4,3.7-5.2,8.3-5.2,13.8c0,5.5,1.7,10.1,5.2,13.8C571.1,88.3,575.6,90.1,581.1,90.1z"/>
	<path class="st0" d="M78.1,16.8l20.1,16.4l19.2-16.9L97.5,0L78.1,16.8L78.1,16.8z M1,85.4l19.9,16.3l39-31.9l12.7,10.4l19.8-16.4
		L59.9,37.2L1,85.4L1,85.4z M78.9,85.3l19.9-16.3l0,0l39-31.9l58.9,48.2l-19.9,16.3l-39-31.9l-39,31.9L78.9,85.3z"/>
</g>
</svg>
