<svg xmlns="http://www.w3.org/2000/svg" width="79" height="1" viewBox="0 0 79 1"><title>Rectangle 4</title><path d="M0 1V0h1v1zm2 0V0h1v1zm2 0V0h1v1zm2 0V0h1v1zm2 0V0h1v1zm2 0V0h1v1zm2 0V0h1v1zm2 0V0h1v1zm2 0V0h1v1zm2 0V0h1v1zm2 0V0h1v1zm2 0V0h1v1zm2 0V0h1v1zm2 0V0h1v1zm2 0V0h1v1zm2 0V0h1v1zm2 0V0h1v1zm2 0V0h1v1zm2 0V0h1v1zm2 0V0h1v1zm2 0V0h1v1zm2 0V0h1v1zm2 0V0h1v1zm2 0V0h1v1zm2 0V0h1v1zm2 0V0h1v1zm2 0V0h1v1zm2 0V0h1v1zm2 0V0h1v1zm2 0V0h1v1zm2 0V0h1v1zm2 0V0h1v1zm2 0V0h1v1zm2 0V0h1v1zm2 0V0h1v1zm2 0V0h1v1zm2 0V0h1v1zm2 0V0h1v1zm2 0V0h1v1zm2 0V0h1v1z" fill="#9eec07"/><path d="M0 1V0h1v1zm2 0V0h1v1zm2 0V0h1v1zm2 0V0h1v1zm2 0V0h1v1zm2 0V0h1v1zm2 0V0h1v1zm2 0V0h1v1zm2 0V0h1v1zm2 0V0h1v1zm2 0V0h1v1zm2 0V0h1v1zm2 0V0h1v1zm2 0V0h1v1zm2 0V0h1v1zm2 0V0h1v1zm2 0V0h1v1zm2 0V0h1v1zm2 0V0h1v1zm2 0V0h1v1zm2 0V0h1v1zm2 0V0h1v1zm2 0V0h1v1zm2 0V0h1v1zm2 0V0h1v1zm2 0V0h1v1zm2 0V0h1v1zm2 0V0h1v1zm2 0V0h1v1zm2 0V0h1v1zm2 0V0h1v1zm2 0V0h1v1zm2 0V0h1v1zm2 0V0h1v1zm2 0V0h1v1zm2 0V0h1v1zm2 0V0h1v1zm2 0V0h1v1zm2 0V0h1v1zm2 0V0h1v1z" fill="#02a2dd"/></svg>